<?xml version="1.0" encoding="utf-8"?>
<!-- Generator: Adobe Illustrator 22.0.1, SVG Export Plug-In . SVG Version: 6.00 Build 0)  -->
<svg version="1.1" id="Layer_1" xmlns="http://www.w3.org/2000/svg" xmlns:xlink="http://www.w3.org/1999/xlink" x="0px" y="0px"
	 viewBox="0 0 128 128" style="enable-background:new 0 0 128 128;" xml:space="preserve">
<style type="text/css">
	.st0{fill:#73FFC6;stroke:#000000;stroke-miterlimit:10;}
	.st1{fill:#1D4031;stroke:#000000;stroke-miterlimit:10;}
	.st2{fill-rule:evenodd;clip-rule:evenodd;fill:#BE342B;}
	.st3{fill-rule:evenodd;clip-rule:evenodd;fill:#18262E;}
	.st4{fill-rule:evenodd;clip-rule:evenodd;fill:#EABEA8;}
	.st5{fill-rule:evenodd;clip-rule:evenodd;fill:#FFFFFF;}
</style>
<g>
	<circle class="st0" cx="64" cy="64" r="64"/>
	<circle class="st1" cx="64" cy="64" r="61.3"/>
	<circle class="st0" cx="64" cy="64.2" r="57.8"/>
	<g>
		<g>
			<polygon class="st2" points="45.1,51.1 45.4,51.1 35.8,80.6 26.4,80.6 26.3,80.3 26.2,80.3 26.1,80 25.9,80 25.8,79.7 25.6,79.7 
				25.5,79.4 25.4,79.4 25.3,79.1 25.1,79.1 25,78.8 24.9,78.8 24.8,78.5 24.6,78.5 24.5,78.2 24.3,78.2 24.2,77.9 24.1,77.9 
				24,77.5 23.8,77.5 23.7,77.2 23.5,77.2 23.4,76.9 23.3,76.9 23.2,76.6 23,76.6 22.9,76.3 22.7,76.3 22.6,76 22.5,76 22.4,75.7 
				22.2,75.7 22.1,75.4 21.9,75.4 21.8,75.1 21.7,75.1 21.6,74.8 21.4,74.8 21.3,74.5 21.1,74.5 21.1,74.2 20.9,74.2 11.3,44.8 
				20.2,44.8 20.3,45.1 20.5,45.1 20.6,45.4 20.7,45.4 20.8,45.7 21,45.7 21.1,46 21.3,46 21.4,46.3 21.5,46.3 21.6,46.6 21.8,46.6 
				21.9,46.9 22.1,46.9 22.2,47.2 22.3,47.2 22.4,47.5 22.6,47.5 22.7,47.8 22.9,47.8 22.9,48.1 23.1,48.1 23.2,48.4 23.4,48.4 
				23.5,48.7 23.7,48.7 23.7,49 23.9,49 24,49.3 24.2,49.3 24.3,49.6 24.5,49.6 24.5,49.9 24.7,49.9 24.8,50.2 25,50.2 25.1,50.5 
				25.2,50.5 25.3,50.8 25.5,50.8 25.6,51.1 25.8,51.1 27.5,57.6 31,44.8 39.9,44.8 39.8,45.1 40.1,45.1 40,45.4 40.4,45.4 
				40.3,45.7 40.7,45.7 40.6,46 40.9,46 40.8,46.3 41.2,46.3 41.1,46.6 41.5,46.6 41.4,46.9 41.7,46.9 41.6,47.2 42,47.2 41.9,47.5 
				42.3,47.5 42.2,47.8 42.5,47.8 42.4,48.1 42.8,48.1 42.7,48.4 43.1,48.4 43,48.7 43.3,48.7 43.2,49 43.6,49 43.5,49.3 43.9,49.3 
				43.8,49.6 44.1,49.6 44,49.9 44.4,49.9 44.3,50.2 44.6,50.2 44.5,50.5 44.9,50.5 44.8,50.8 45.2,50.8 			"/>
			<path class="st3" d="M45.6,50.7c0.2,0.1,0.3,0.2,0.3,0.4c0,0.1,0,0.1,0,0.2l-9.6,29.4C36.2,80.9,36,81,35.8,81l-9.4,0
				c-0.2,0-0.4-0.1-0.4-0.3l0,0c-0.1-0.1-0.2-0.2-0.3-0.3l0,0c-0.1-0.1-0.2-0.2-0.3-0.3l0,0c-0.1-0.1-0.2-0.2-0.3-0.3l0,0
				c-0.1-0.1-0.2-0.2-0.3-0.3l0,0c-0.1-0.1-0.2-0.2-0.3-0.3l0,0c-0.1-0.1-0.2-0.2-0.3-0.3l0,0c-0.1-0.1-0.2-0.2-0.3-0.3l0,0
				c-0.1-0.1-0.2-0.2-0.3-0.3l0,0c-0.1-0.1-0.2-0.2-0.3-0.3l0,0c-0.1-0.1-0.2-0.2-0.3-0.3v0c-0.1-0.1-0.2-0.2-0.3-0.3l0,0
				c-0.1-0.1-0.2-0.2-0.3-0.3l0,0c-0.1-0.1-0.2-0.2-0.3-0.3v0c-0.1-0.1-0.2-0.2-0.3-0.3v0c-0.1-0.1-0.2-0.2-0.3-0.3v0
				c-0.1-0.1-0.2-0.2-0.3-0.3v0c-0.1-0.1-0.2-0.2-0.3-0.3v0c-0.1-0.1-0.2-0.2-0.3-0.3v0c-0.1-0.1-0.2-0.2-0.3-0.3l0,0
				c-0.1-0.1-0.2-0.2-0.3-0.3l0,0c-0.1-0.1-0.2-0.2-0.3-0.3l-9.6-29.4c-0.1-0.2,0.1-0.5,0.3-0.5c0,0,0.1,0,0.1,0h8.9
				c0.2,0,0.4,0.1,0.4,0.3c0.1,0.1,0.2,0.2,0.3,0.3c0.1,0.1,0.2,0.2,0.3,0.3c0.1,0.1,0.2,0.2,0.3,0.3c0.1,0.1,0.2,0.2,0.3,0.3
				c0.1,0.1,0.2,0.2,0.3,0.3c0.1,0.1,0.2,0.2,0.3,0.3c0.1,0.1,0.2,0.2,0.3,0.3c0.1,0.1,0.2,0.2,0.3,0.3c0.1,0.1,0.2,0.2,0.3,0.3
				c0.1,0.1,0.2,0.2,0.3,0.3c0.1,0.1,0.2,0.2,0.3,0.3c0.1,0.1,0.2,0.2,0.3,0.3c0.1,0.1,0.2,0.2,0.3,0.3c0.1,0.1,0.2,0.2,0.3,0.3
				c0.1,0.1,0.2,0.2,0.3,0.3c0.1,0.1,0.2,0.2,0.3,0.3c0.1,0.1,0.2,0.2,0.3,0.3c0.1,0.1,0.2,0.2,0.3,0.3c0.1,0.1,0.2,0.2,0.3,0.3
				c0.1,0.1,0.2,0.2,0.3,0.3c0.1,0.1,0.2,0.2,0.3,0.3l1.3,4.9l3.1-11.2c0.1-0.2,0.2-0.3,0.4-0.3l8.9,0c0.2,0,0.4,0.1,0.4,0.3
				c0.1,0.1,0.2,0.2,0.3,0.3c0.1,0.1,0.2,0.2,0.3,0.3c0.1,0.1,0.2,0.2,0.3,0.3c0.1,0.1,0.2,0.2,0.3,0.3c0.1,0.1,0.2,0.2,0.3,0.3
				c0.1,0.1,0.2,0.2,0.3,0.3c0.1,0.1,0.2,0.2,0.3,0.3c0.1,0.1,0.2,0.2,0.3,0.3c0.1,0.1,0.2,0.2,0.3,0.3c0.1,0.1,0.2,0.2,0.3,0.3
				c0.1,0.1,0.2,0.2,0.3,0.3c0.1,0.1,0.2,0.2,0.3,0.3c0.1,0.1,0.2,0.2,0.3,0.3c0.1,0.1,0.2,0.2,0.3,0.3c0.1,0.1,0.2,0.2,0.3,0.3
				c0.1,0.1,0.2,0.2,0.3,0.3c0.1,0.1,0.2,0.2,0.3,0.3c0.1,0.1,0.2,0.2,0.3,0.3c0.1,0.1,0.2,0.2,0.3,0.3
				C45.5,50.5,45.6,50.6,45.6,50.7L45.6,50.7z M35.5,80.1l9.4-28.6c-0.1-0.1-0.2-0.2-0.2-0.3c-0.1-0.1-0.2-0.2-0.3-0.3
				c-0.1-0.1-0.2-0.2-0.3-0.3c-0.1-0.1-0.2-0.2-0.3-0.3c-0.1-0.1-0.2-0.2-0.3-0.3c-0.1-0.1-0.2-0.2-0.3-0.3
				c-0.1-0.1-0.2-0.2-0.3-0.3c-0.1-0.1-0.2-0.2-0.3-0.3c-0.1-0.1-0.2-0.2-0.3-0.3c-0.1-0.1-0.2-0.2-0.3-0.3
				c-0.1-0.1-0.2-0.2-0.3-0.3c-0.1-0.1-0.2-0.2-0.3-0.3c-0.1-0.1-0.2-0.2-0.3-0.3c-0.1-0.1-0.2-0.2-0.3-0.3
				c-0.1-0.1-0.2-0.2-0.3-0.3c-0.1-0.1-0.2-0.2-0.3-0.3c-0.1-0.1-0.2-0.2-0.3-0.3c-0.1-0.1-0.2-0.2-0.3-0.3
				c-0.1-0.1-0.2-0.2-0.3-0.3c-0.1-0.1-0.2-0.2-0.3-0.3c-0.1,0-0.2-0.2-0.3-0.3h-8l-3.4,12.4c0,0.2-0.1,0.3-0.3,0.3
				c-0.2,0.1-0.5-0.1-0.5-0.3l-1.7-6.2c-0.1,0-0.2-0.2-0.3-0.3l0,0c-0.1-0.1-0.2-0.2-0.3-0.3l0,0c-0.1,0-0.2-0.2-0.3-0.3l0,0
				c-0.1-0.1-0.2-0.2-0.3-0.3l0,0c-0.1,0-0.2-0.2-0.3-0.3l0,0c-0.1,0-0.2-0.2-0.3-0.3l0,0c-0.1,0-0.2-0.2-0.3-0.3l0,0
				c-0.1,0-0.2-0.2-0.3-0.3l0,0c-0.1-0.1-0.2-0.2-0.3-0.3l0,0c-0.1,0-0.2-0.2-0.3-0.3l0,0c-0.1,0-0.2-0.2-0.3-0.3l0,0
				c-0.1,0-0.2-0.2-0.3-0.3l0,0c-0.1,0-0.2-0.2-0.3-0.3l0,0c-0.1,0-0.2-0.2-0.3-0.3l0,0c-0.1,0-0.2-0.2-0.3-0.3l0,0
				c-0.1,0-0.2-0.2-0.3-0.3l0,0c-0.1,0-0.2-0.2-0.3-0.3l0,0c-0.1,0-0.2-0.2-0.3-0.3l0,0c-0.1,0-0.2-0.2-0.3-0.3l0,0
				c-0.1-0.1-0.2-0.2-0.3-0.3l0,0c-0.1,0-0.2-0.1-0.3-0.3h-8l9.3,28.6c0.1,0,0.2,0.1,0.3,0.3l0,0c0.1,0,0.2,0.1,0.3,0.3l0,0
				c0.1,0,0.2,0.1,0.3,0.3l0,0c0.1,0,0.2,0.1,0.3,0.3l0,0c0.1,0,0.2,0.1,0.3,0.3l0,0c0.1,0,0.2,0.1,0.3,0.3l0,0
				c0.1,0,0.2,0.1,0.3,0.3l0,0c0.1,0,0.2,0.1,0.3,0.3l0,0c0.1,0,0.2,0.1,0.3,0.3l0,0c0.1,0,0.2,0.1,0.3,0.3l0,0
				c0.1,0,0.2,0.1,0.3,0.3l0,0c0.1,0,0.2,0.1,0.3,0.3l0,0c0.1,0,0.2,0.1,0.3,0.3l0,0c0.1,0,0.2,0.1,0.3,0.3l0,0
				c0.1,0,0.2,0.1,0.3,0.3l0,0c0.1,0,0.2,0.1,0.3,0.3l0,0c0.1,0,0.2,0.1,0.3,0.3l0,0c0.1,0,0.2,0.1,0.3,0.3l0,0
				c0.1,0,0.2,0.1,0.3,0.3l0,0c0.1,0,0.2,0.1,0.3,0.3l0,0c0.1,0,0.2,0.1,0.3,0.3H35.5z"/>
			<path class="st4" d="M31,44.8h8.9l-9.6,29.4h-9.4l-9.6-29.4h8.9l4,14.9c0.8,3.3,1.3,5.6,1.4,6.9c0.1-0.9,0.3-2.1,0.6-3.5
				c0.3-1.4,0.5-2.5,0.7-3.3L31,44.8z"/>
			<path class="st3" d="M29.9,74.5c-0.2-0.2-0.1-0.5,0-0.6c0.2-0.2,0.5-0.1,0.6,0l5.6,6.3c0.2,0.2,0.1,0.5,0,0.6
				c-0.2,0.2-0.5,0.1-0.6,0L29.9,74.5z"/>
			<path class="st3" d="M20.3,45.1l3.9,14.6c0.8,3.3,1.3,5.6,1.4,6.9c0.1-0.9,0.3-2.1,0.6-3.5c0.3-1.4,0.5-2.5,0.7-3.3l0.6-2.2
				l-1.7-6.4h-0.2l-0.1-0.3h-0.2l-0.1-0.3h-0.2L25,50.2h-0.2l-0.1-0.3h-0.2l-0.1-0.3h-0.2l-0.1-0.3H24L23.9,49h-0.2l-0.1-0.3h-0.2
				l-0.1-0.3h-0.2l-0.1-0.3h-0.2l-0.1-0.3h-0.2l-0.1-0.3h-0.2l-0.1-0.3h-0.2l-0.1-0.3h-0.2l-0.1-0.3h-0.2l-0.1-0.3h-0.2L21.3,46
				h-0.2L21,45.7h-0.2l-0.1-0.3h-0.2l-0.1-0.3H20.3z"/>
			<polygon class="st3" points="30.2,74.2 21.1,74.2 21.1,74.5 21.3,74.5 21.4,74.8 21.6,74.8 21.7,75.1 21.8,75.1 21.9,75.4 
				22.1,75.4 22.2,75.7 22.4,75.7 22.5,76 22.6,76 22.7,76.3 22.9,76.3 23,76.6 23.2,76.6 23.3,76.9 23.4,76.9 23.5,77.2 23.7,77.2 
				23.8,77.5 24,77.5 24.1,77.9 24.2,77.9 24.3,78.2 24.5,78.2 24.6,78.5 24.8,78.5 24.9,78.8 25,78.8 25.1,79.1 25.3,79.1 
				25.4,79.4 25.5,79.4 25.6,79.7 25.8,79.7 25.9,80 26.1,80 26.2,80.3 26.3,80.3 26.4,80.6 35.8,80.6 			"/>
			<path class="st3" d="M31,44.4h8.9c0.2,0,0.4,0.2,0.4,0.4c0,0.1,0,0.1,0,0.2l-9.6,29.4c-0.1,0.2-0.2,0.3-0.4,0.3l-9.4,0
				c-0.2,0-0.4-0.1-0.4-0.3l-9.6-29.4c-0.1-0.2,0.1-0.5,0.3-0.5c0,0,0.1,0,0.1,0h8.9c0.2,0,0.4,0.1,0.4,0.3l4,14.9
				c0.4,1.6,0.7,3,0.9,4.1l0.1-0.7c0.1-0.7,0.3-1.3,0.4-1.9c0.1-0.6,0.2-1.1,0.4-1.5l4.1-15C30.6,44.5,30.8,44.4,31,44.4L31,44.4z
				 M39.3,45.2h-8l-4,14.7c-0.1,0.4-0.2,0.9-0.3,1.4c-0.1,0.5-0.2,1.1-0.4,1.9l0,0c-0.1,0.7-0.3,1.4-0.4,1.9
				c-0.1,0.6-0.2,1.1-0.2,1.5c0,0.2-0.2,0.4-0.4,0.4c-0.2,0-0.4-0.2-0.5-0.4c0-0.6-0.2-1.5-0.4-2.6c-0.2-1.1-0.5-2.5-1-4.2
				l-3.9-14.6h-8l9.3,28.5h8.7L39.3,45.2z"/>
			<path class="st5" d="M32.7,47.3c0.1-0.2,0.3-0.4,0.5-0.3c0.2,0.1,0.4,0.3,0.3,0.5l-3.8,13.5c-0.1,0.2-0.3,0.4-0.5,0.3
				c-0.2-0.1-0.4-0.3-0.3-0.5L32.7,47.3z"/>
			<path class="st5" d="M13.6,47.2c-0.1-0.2,0-0.5,0.3-0.6c0.2-0.1,0.5,0,0.6,0.3l6.4,18.8c0.1,0.2,0,0.5-0.3,0.6
				c-0.2,0.1-0.5,0-0.6-0.3L13.6,47.2z"/>
		</g>
		<g>
			<path class="st2" d="M80.9,80.6H70.4l-0.2-0.3h-0.1L70,80h-0.1l-0.2-0.3h-0.1l-0.2-0.3h-0.1l-0.2-0.3h-0.1L69,78.8h-0.1l-0.2-0.3
				h-0.1l-0.2-0.3h-0.1l-0.2-0.3h-0.1l-0.2-0.3h-0.1l-0.2-0.3h-0.1l-0.2-0.3h-0.1l-0.2-0.3H67l-0.2-0.3h-0.1L66.6,76h-0.1l-0.2-0.3
				h-0.1l-0.2-0.3h-0.1l-0.2-0.3h-0.1l-0.2-0.3h-0.1l-0.2-0.3h-0.1L65,74.2h-0.1l-5.1-9.8c0.1,1.1,0.1,2.1,0.1,2.8v13.3h-7v-0.3
				h-0.3V80h-0.3v-0.3h-0.3v-0.3h-0.3v-0.3h-0.3v-0.3h-0.3v-0.3H51v-0.3h-0.3v-0.3h-0.3v-0.3h-0.3v-0.3H50v-0.3h-0.3v-0.3h-0.3v-0.3
				h-0.3V76h-0.3v-0.3h-0.3v-0.3h-0.3v-0.3h-0.3v-0.3h-0.3v-0.3h-0.3v-0.3h-0.3V44.8h10.4l0.2,0.3H58l0.2,0.3h0.1l0.2,0.3h0.1
				l0.2,0.3h0.1l0.2,0.3H59l0.2,0.3h0.1l0.2,0.3h0.1l0.2,0.3h0.1l0.2,0.3h0.1l0.2,0.3h0.1l0.2,0.3h0.1l0.2,0.3h0.1l0.2,0.3h0.1
				l0.2,0.3h0.1l0.2,0.3h0.1l0.2,0.3h0.1l0.2,0.3h0.1l0.2,0.3h0.1l0.2,0.3h0.1l0.2,0.3H63l0.2,0.3h0.1l5,9.6c0-1-0.1-1.9-0.1-2.6
				V44.8h7.1v0.3h0.3v0.3h0.3v0.3h0.3V46h0.3v0.3h0.3v0.3h0.3v0.3h0.3v0.3h0.3v0.3h0.3v0.3H78v0.3h0.3v0.3h0.3v0.3h0.3V49H79v0.3
				h0.3v0.3h0.3v0.3h0.3v0.3h0.3v0.3h0.3v0.3h0.3v0.3h0.3V80.6z"/>
			<path class="st3" d="M80.9,81H70.4c-0.2,0-0.3-0.1-0.4-0.3l0-0.1c-0.1,0-0.2-0.1-0.2-0.2l0-0.1c-0.1,0-0.2-0.1-0.2-0.2l0-0.1
				c-0.1,0-0.2-0.1-0.2-0.2l0-0.1c-0.1,0-0.2-0.1-0.2-0.2l0-0.1c-0.1,0-0.2-0.1-0.2-0.2l0-0.1c-0.1,0-0.2-0.1-0.2-0.2l0-0.1
				c-0.1,0-0.2-0.1-0.2-0.2l0-0.1c-0.1,0-0.2-0.1-0.2-0.2l0-0.1c-0.1,0-0.2-0.1-0.2-0.2l0-0.1c-0.1,0-0.2-0.1-0.2-0.2l0-0.1
				c-0.1,0-0.2-0.1-0.2-0.2l0-0.1c-0.1,0-0.2-0.1-0.2-0.2l0-0.1c-0.1,0-0.2-0.1-0.2-0.2l0-0.1c-0.1,0-0.2-0.1-0.2-0.2l0-0.1
				c-0.1,0-0.2-0.1-0.2-0.2l0-0.1c-0.1,0-0.2-0.1-0.2-0.2l0-0.1c-0.1,0-0.2-0.1-0.2-0.2l0-0.1c-0.1,0-0.2-0.1-0.2-0.2l0-0.1
				c-0.1,0-0.2-0.1-0.2-0.2l0-0.1c-0.1,0-0.2-0.1-0.2-0.2l0-0.1c-0.1,0-0.2-0.1-0.2-0.2l-4.2-8c0,0.3,0,0.7,0,0.9v13.3
				c0,0.2-0.2,0.4-0.4,0.4h-7c-0.2,0-0.4-0.1-0.4-0.3c-0.1-0.1-0.2-0.2-0.3-0.3c-0.1-0.1-0.2-0.2-0.3-0.3c-0.1-0.1-0.2-0.2-0.3-0.3
				c-0.1-0.1-0.2-0.2-0.3-0.3c-0.1,0-0.2-0.2-0.3-0.3c-0.1-0.1-0.2-0.2-0.3-0.3c-0.1-0.1-0.2-0.2-0.3-0.3c-0.1-0.1-0.2-0.2-0.3-0.3
				c-0.1-0.1-0.2-0.2-0.3-0.3c-0.1-0.1-0.2-0.2-0.3-0.3c-0.1-0.1-0.2-0.2-0.3-0.3c-0.1-0.1-0.2-0.2-0.3-0.3C49.1,77,49,76.9,49,76.8
				c-0.1-0.1-0.2-0.2-0.3-0.3c-0.1-0.1-0.2-0.2-0.3-0.3c-0.1,0-0.2-0.2-0.3-0.3c-0.1-0.1-0.2-0.2-0.3-0.3c-0.1-0.1-0.2-0.2-0.3-0.3
				c-0.1-0.1-0.2-0.2-0.3-0.3c-0.1-0.1-0.2-0.2-0.3-0.3c-0.2-0.1-0.3-0.2-0.3-0.4V44.8c0-0.2,0.2-0.4,0.4-0.4h10.4
				c0.2,0,0.3,0.1,0.4,0.3l0,0.1c0.1,0,0.2,0.1,0.2,0.2l0,0.1c0.1,0,0.2,0.1,0.2,0.2l0,0.1c0.1,0,0.2,0.1,0.2,0.2l0,0.1
				c0.1,0,0.2,0.1,0.2,0.2l0,0.1c0.1,0,0.2,0.1,0.2,0.2l0,0.1c0.1,0,0.2,0.1,0.2,0.2l0,0.1c0.1,0,0.2,0.1,0.2,0.2l0,0.1
				c0.1,0,0.2,0.1,0.2,0.2l0,0.1c0.1,0,0.2,0.1,0.2,0.2l0,0.1c0.1,0,0.2,0.1,0.2,0.2l0,0.1c0.1,0,0.2,0.1,0.2,0.2l0,0.1
				c0.1,0,0.2,0.1,0.2,0.2l0,0.1c0.1,0,0.2,0.1,0.2,0.2l0,0.1c0.1,0,0.2,0.1,0.2,0.2l0,0.1c0.1,0,0.2,0.1,0.2,0.2l0,0.1
				c0.1,0,0.2,0.1,0.2,0.2l0,0.1c0.1,0,0.2,0.1,0.2,0.2l0,0.1c0.1,0,0.2,0.1,0.2,0.2l0,0.1c0.1,0,0.2,0.1,0.2,0.2l0,0.1
				c0.1,0,0.2,0.1,0.2,0.2l0,0.1c0.1,0,0.2,0.1,0.2,0.2l4.1,7.9c0-0.3,0-0.6,0-0.8V44.8c0-0.2,0.2-0.4,0.4-0.4h7.1
				c0.2,0,0.4,0.1,0.4,0.3c0.1,0,0.2,0.2,0.3,0.3c0.1,0.1,0.2,0.2,0.3,0.3c0.1,0.1,0.2,0.2,0.3,0.3c0.1,0.1,0.2,0.2,0.3,0.3
				c0.1,0.1,0.2,0.2,0.3,0.3c0.1,0.1,0.2,0.2,0.3,0.3c0.1,0.1,0.2,0.2,0.3,0.3c0.1,0.1,0.2,0.2,0.3,0.3c0.1,0.1,0.2,0.2,0.3,0.3
				c0.1,0.1,0.2,0.2,0.3,0.3c0.1,0.1,0.2,0.2,0.3,0.3c0.1,0.1,0.2,0.2,0.3,0.3c0.1,0.1,0.2,0.2,0.3,0.3c0.1,0.1,0.2,0.2,0.3,0.3
				c0.1,0.1,0.2,0.2,0.3,0.3c0.1,0.1,0.2,0.2,0.3,0.3c0.1,0.1,0.2,0.2,0.3,0.3c0.1,0.1,0.2,0.2,0.3,0.3c0.1,0.1,0.2,0.2,0.3,0.3
				c0.1,0.1,0.2,0.2,0.3,0.3c0.2,0.1,0.3,0.2,0.3,0.4v29.4C81.3,80.8,81.1,81,80.9,81L80.9,81z M70.7,80.1h9.7V51.5
				c-0.1-0.1-0.2-0.2-0.3-0.3c-0.1-0.1-0.2-0.2-0.3-0.3c-0.1-0.1-0.2-0.2-0.3-0.3c-0.1-0.1-0.2-0.2-0.3-0.3
				c-0.1-0.1-0.2-0.2-0.3-0.3c-0.1-0.1-0.2-0.2-0.3-0.3c-0.1-0.1-0.2-0.2-0.3-0.3c-0.1-0.1-0.2-0.2-0.3-0.3
				c-0.1-0.1-0.2-0.2-0.3-0.3c-0.1-0.1-0.2-0.2-0.3-0.3c-0.1-0.1-0.2-0.2-0.3-0.3c-0.1-0.1-0.2-0.2-0.3-0.3
				c-0.1-0.1-0.2-0.2-0.3-0.3c-0.1-0.1-0.2-0.2-0.3-0.3c-0.1-0.1-0.2-0.2-0.3-0.3c-0.1-0.1-0.2-0.2-0.3-0.3
				c-0.1-0.1-0.2-0.2-0.3-0.3c-0.1-0.1-0.2-0.2-0.3-0.3c-0.1-0.1-0.2-0.2-0.3-0.3c-0.1-0.1-0.2-0.2-0.3-0.3c-0.1,0-0.2-0.1-0.3-0.3
				h-6.2v12.9c0,0.4,0,0.9,0,1.2c0,0.4,0,0.9,0,1.4c0,0.2-0.1,0.3-0.2,0.4c-0.2,0.1-0.5,0-0.6-0.2L63,51.5c-0.1,0-0.2-0.1-0.2-0.2
				l-0.1-0.1c-0.1,0-0.2-0.1-0.2-0.2l-0.1-0.1c-0.1,0-0.2-0.1-0.2-0.2l-0.1-0.1c-0.1,0-0.2-0.1-0.2-0.2l-0.1-0.1
				c-0.1,0-0.2-0.1-0.2-0.2L61.6,50c-0.1,0-0.2-0.1-0.2-0.2l-0.1-0.1c-0.1,0-0.2-0.1-0.2-0.2l-0.1-0.1c-0.1,0-0.2-0.1-0.2-0.2
				l-0.1-0.1c-0.1,0-0.2-0.1-0.2-0.2l-0.1-0.1c-0.1,0-0.2-0.1-0.2-0.2l-0.1-0.1c-0.1,0-0.2-0.1-0.2-0.2l-0.1-0.1
				c-0.1,0-0.2-0.1-0.2-0.2l-0.1-0.1c-0.1,0-0.2-0.1-0.2-0.2l-0.1-0.1c-0.1,0-0.2-0.1-0.2-0.2l-0.1-0.1c-0.1,0-0.2-0.1-0.2-0.2
				L59,47c-0.1,0-0.2-0.1-0.2-0.2l-0.1-0.1c-0.1,0-0.2-0.1-0.2-0.2l-0.1-0.1c-0.1,0-0.2-0.1-0.2-0.2l-0.1-0.1
				c-0.1,0-0.2-0.1-0.2-0.2l-0.1-0.1c-0.1,0-0.2-0.1-0.2-0.2l-0.1-0.1c-0.1,0-0.2-0.1-0.2-0.2l0-0.1h-9.7v28.6
				c0.1,0.1,0.2,0.2,0.3,0.3c0.1,0.1,0.2,0.2,0.3,0.3c0.1,0.1,0.2,0.2,0.3,0.3c0.1,0.1,0.2,0.2,0.3,0.3c0.1,0.1,0.2,0.2,0.3,0.3
				c0.1,0.1,0.2,0.2,0.3,0.3c0.1,0.1,0.2,0.2,0.3,0.3c0.1,0.1,0.2,0.2,0.3,0.3c0.1,0.1,0.2,0.2,0.3,0.3c0.1,0,0.2,0.2,0.3,0.3
				c0.1,0.1,0.2,0.2,0.3,0.3c0.1,0.1,0.2,0.2,0.3,0.3c0.1,0.1,0.2,0.2,0.3,0.3c0.1,0.1,0.2,0.2,0.3,0.3c0.1,0.1,0.2,0.2,0.3,0.3
				c0.1,0.1,0.2,0.2,0.3,0.3c0.1,0.1,0.2,0.2,0.3,0.3c0.1,0.1,0.2,0.2,0.3,0.3c0.1,0.1,0.2,0.2,0.3,0.3c0.1,0.1,0.2,0.2,0.3,0.3
				c0.1,0,0.2,0.1,0.3,0.3h6.2V67.3c0-0.4,0-0.9,0-1.3c0-0.5,0-1-0.1-1.5c0-0.2,0.1-0.3,0.2-0.4c0.2-0.1,0.5,0,0.6,0.2l5,9.6
				c0.1,0,0.2,0.1,0.2,0.2l0.1,0.1c0.1,0,0.2,0.1,0.2,0.2l0.1,0.1c0.1,0,0.2,0.1,0.2,0.2l0.1,0.1c0.1,0,0.2,0.1,0.2,0.2l0.1,0.1
				c0.1,0,0.2,0.1,0.2,0.2l0.1,0.1c0.1,0,0.2,0.1,0.2,0.2l0.1,0.1c0.1,0,0.2,0.1,0.2,0.2l0.1,0.1c0.1,0,0.2,0.1,0.2,0.2l0.1,0.1
				c0.1,0,0.2,0.1,0.2,0.2l0.1,0.1c0.1,0,0.2,0.1,0.2,0.2l0.1,0.1c0.1,0,0.2,0.1,0.2,0.2l0.1,0.1c0.1,0,0.2,0.1,0.2,0.2l0.1,0.1
				c0.1,0,0.2,0.1,0.2,0.2l0.1,0.1c0.1,0,0.2,0.1,0.2,0.2l0.1,0.1c0.1,0,0.2,0.1,0.2,0.2l0.1,0.1c0.1,0,0.2,0.1,0.2,0.2l0.1,0.1
				c0.1,0,0.2,0.1,0.2,0.2l0.1,0.1c0.1,0,0.2,0.1,0.2,0.2l0.1,0.1c0.1,0,0.2,0.1,0.2,0.2l0.1,0.1c0.1,0,0.2,0.1,0.2,0.2l0.1,0.1
				C70.6,79.9,70.6,80,70.7,80.1L70.7,80.1z"/>
			<path class="st4" d="M75.3,74.2H64.9L54.1,53.5H54c0.3,3.3,0.4,5.7,0.4,7.5v13.3h-7V44.8h10.4l10.7,20.4h0.1
				c-0.2-3-0.3-5.3-0.3-7.1V44.8h7.1V74.2z"/>
			<path class="st3" d="M54,74.5c-0.2-0.2-0.1-0.5,0-0.6c0.2-0.2,0.5-0.1,0.6,0l5.6,6.3c0.2,0.2,0.1,0.5,0,0.6
				c-0.2,0.2-0.5,0.1-0.6,0L54,74.5z"/>
			<path class="st3" d="M75,74.5c-0.2-0.2-0.1-0.5,0-0.6c0.2-0.2,0.5-0.1,0.6,0l5.6,6.3c0.2,0.2,0.1,0.5,0,0.6
				c-0.2,0.2-0.5,0.1-0.6,0L75,74.5z"/>
			<polygon class="st3" points="48.6,75.4 48.6,75.7 48.9,75.7 48.9,76 49.2,76 49.2,76.3 49.4,76.3 49.4,76.6 49.7,76.6 49.7,76.9 
				50,76.9 50,77.2 50.2,77.2 50.2,77.5 50.5,77.5 50.5,77.8 50.7,77.8 50.7,78.2 51,78.2 51,78.5 51.3,78.5 51.3,78.8 51.5,78.8 
				51.5,79.1 51.8,79.1 51.8,79.4 52.1,79.4 52.1,79.7 52.3,79.7 52.3,80 52.6,80 52.6,80.3 52.9,80.3 52.9,80.6 59.9,80.6 
				54.3,74.2 47.6,74.2 47.6,74.5 47.8,74.5 47.8,74.8 48.1,74.8 48.1,75.1 48.4,75.1 48.4,75.4 			"/>
			<polygon class="st3" points="67.1,76.6 67.3,76.9 67.4,76.9 67.5,77.2 67.6,77.2 67.8,77.5 67.9,77.5 68.1,77.8 68.2,77.8 
				68.3,78.2 68.4,78.2 68.6,78.5 68.7,78.5 68.9,78.8 69,78.8 69.1,79.1 69.2,79.1 69.4,79.4 69.5,79.4 69.7,79.7 69.8,79.7 
				69.9,80 70,80 70.2,80.3 70.3,80.3 70.4,80.6 80.9,80.6 75.3,74.2 65,74.2 65.2,74.5 65.3,74.5 65.4,74.8 65.5,74.8 65.7,75.1 
				65.8,75.1 65.9,75.4 66.1,75.4 66.2,75.7 66.3,75.7 66.5,76 66.6,76 66.7,76.3 66.9,76.3 67,76.6 			"/>
			<path class="st3" d="M57.9,45.1l10.5,20.1h0.1c-0.1-1.7-0.2-3.2-0.2-4.5l-5-9.6h-0.1L63,50.8h-0.1l-0.2-0.3h-0.1l-0.2-0.3h-0.1
				l-0.2-0.3h-0.1l-0.2-0.3h-0.1l-0.2-0.3h-0.1L61.4,49h-0.1l-0.2-0.3H61l-0.2-0.3h-0.1l-0.2-0.3h-0.1l-0.2-0.3h-0.1l-0.2-0.3H60
				l-0.2-0.3h-0.1l-0.2-0.3h-0.1l-0.2-0.3h-0.1L59,46.3h-0.1L58.8,46h-0.1l-0.2-0.3h-0.1l-0.2-0.3h-0.1L58,45.1H57.9z"/>
			<path class="st3" d="M75.3,74.7H64.9c-0.2,0-0.3-0.1-0.4-0.3l-10-19.2c0.1,0.9,0.1,1.8,0.2,2.6c0.1,1.3,0.1,2.3,0.1,3.2v13.3
				c0,0.2-0.2,0.4-0.4,0.4h-7c-0.2,0-0.4-0.2-0.4-0.4V44.8c0-0.2,0.2-0.4,0.4-0.4h10.4c0.2,0,0.3,0.1,0.4,0.3L68,63.5
				c0-0.8-0.1-1.5-0.1-2.2c0-1.2-0.1-2.3-0.1-3.2V44.8c0-0.2,0.2-0.4,0.4-0.4h7.1c0.2,0,0.4,0.2,0.4,0.4v29.4
				C75.8,74.5,75.6,74.7,75.3,74.7L75.3,74.7z M65.2,73.8h9.7V45.2h-6.2v12.9c0,0.9,0,2,0.1,3.2c0,1.2,0.1,2.5,0.2,3.9l0,0.1
				c0,0.2-0.2,0.4-0.4,0.4h-0.1c-0.2,0-0.3-0.1-0.4-0.2L57.4,45.2h-9.7v28.5h6.2V61c0-0.9,0-1.9-0.1-3.2c-0.1-1.2-0.2-2.6-0.3-4.3
				l0-0.1c0-0.2,0.2-0.4,0.4-0.4h0.2c0.2,0,0.3,0.1,0.4,0.2L65.2,73.8z"/>
			<path class="st5" d="M49.3,46.9c0-0.2,0.2-0.4,0.4-0.4c0.2,0,0.4,0.2,0.4,0.4v14c0,0.2-0.2,0.4-0.4,0.4c-0.2,0-0.4-0.2-0.4-0.4
				V46.9z"/>
			<path class="st5" d="M69.8,46.9c0-0.2,0.2-0.4,0.4-0.4c0.2,0,0.4,0.2,0.4,0.4v14c0,0.2-0.2,0.4-0.4,0.4c-0.2,0-0.4-0.2-0.4-0.4
				V46.9z"/>
		</g>
		<g>
			<path class="st2" d="M116.1,65.2c0,4.9-1.4,8.7-4.1,11.4c-2.7,2.7-6.5,4-11.4,4h-9.5v-0.3h-0.3V80h-0.3v-0.3h-0.3v-0.3h-0.3v-0.3
				h-0.3v-0.3h-0.3v-0.3h-0.3v-0.3H89v-0.3h-0.3v-0.3h-0.3v-0.3h-0.3v-0.3H88v-0.3h-0.3v-0.3h-0.3V76h-0.3v-0.3h-0.3v-0.3h-0.3v-0.3
				h-0.3v-0.3h-0.3v-0.3h-0.3v-0.3h-0.3V44.8h10.2c4.7,0,8.4,1.2,10.9,3.6c0.3,0.3,0.6,0.6,0.9,0.9c0.1,0.1,0.2,0.2,0.3,0.3
				c0.1,0.1,0.2,0.2,0.3,0.3c0.1,0.1,0.2,0.2,0.3,0.3c0.1,0.1,0.2,0.2,0.3,0.3c0.1,0.1,0.2,0.2,0.3,0.3c0.1,0.1,0.2,0.2,0.3,0.3
				c0.1,0.1,0.2,0.2,0.3,0.3c0.1,0.1,0.2,0.2,0.3,0.3c0.1,0.1,0.2,0.2,0.3,0.3c0.1,0.1,0.2,0.2,0.3,0.3c0.1,0.1,0.2,0.2,0.3,0.3
				c0.1,0.1,0.2,0.2,0.3,0.3c0.1,0.1,0.2,0.2,0.3,0.3c0.1,0.1,0.2,0.2,0.3,0.3c0.1,0.1,0.2,0.2,0.3,0.3c0.1,0.1,0.2,0.2,0.3,0.3
				c0.1,0.1,0.2,0.2,0.3,0.3c0.1,0.1,0.2,0.2,0.3,0.3c0.1,0.1,0.2,0.2,0.3,0.3c0.1,0.1,0.2,0.2,0.3,0.3
				C115,57.7,116.1,61,116.1,65.2z"/>
			<path class="st3" d="M116.6,65.2c0,2.5-0.3,4.7-1,6.7c-0.7,2-1.7,3.6-3.1,5c-1.4,1.4-3.1,2.4-5,3.1c-1.9,0.7-4.2,1-6.7,1h-9.5
				c-0.2,0-0.4-0.1-0.4-0.3c-0.1-0.1-0.2-0.2-0.3-0.3c-0.1-0.1-0.2-0.2-0.3-0.3c-0.1-0.1-0.2-0.2-0.3-0.3c-0.1-0.1-0.2-0.2-0.3-0.3
				c-0.1-0.1-0.2-0.2-0.3-0.3c-0.1-0.1-0.2-0.2-0.3-0.3c-0.1-0.1-0.2-0.2-0.3-0.3c-0.1-0.1-0.2-0.2-0.3-0.3
				c-0.1-0.1-0.2-0.2-0.3-0.3c-0.1-0.1-0.2-0.2-0.3-0.3c-0.1-0.1-0.2-0.2-0.3-0.3c-0.1-0.1-0.2-0.2-0.3-0.3
				c-0.1-0.1-0.2-0.2-0.3-0.3c-0.1-0.1-0.2-0.2-0.3-0.3c-0.1-0.1-0.2-0.2-0.3-0.3c-0.1-0.1-0.2-0.2-0.3-0.3
				c-0.1-0.1-0.2-0.2-0.3-0.3c-0.1-0.1-0.2-0.2-0.3-0.3c-0.1-0.1-0.2-0.2-0.3-0.3c-0.1-0.1-0.2-0.2-0.3-0.3
				c-0.2-0.1-0.3-0.2-0.3-0.4V44.8c0-0.2,0.2-0.4,0.4-0.4h10.2c2.4,0,4.5,0.3,6.4,0.9c1.9,0.6,3.5,1.6,4.8,2.8
				c0.2,0.1,0.3,0.3,0.5,0.5c0.1,0.2,0.3,0.3,0.4,0.5c1.3,1.4,2.5,2.9,3.8,4.4c0.5,0.6,1,1.1,1.4,1.7c1.1,1.2,2,2.7,2.5,4.4
				C116.3,61.2,116.6,63.1,116.6,65.2L116.6,65.2z M114.7,71.6c0.7-1.8,1-4,1-6.4c0-2-0.3-3.9-0.8-5.5c-0.5-1.6-1.3-3-2.4-4.1
				c-1.7-2-3.5-3.9-5.2-5.9l-0.1-0.2c-0.1-0.2-0.3-0.3-0.4-0.4c-0.1-0.1-0.3-0.3-0.4-0.4c-1.2-1.2-2.7-2-4.5-2.6
				c-1.8-0.6-3.8-0.9-6.1-0.9H86v28.6c0.1,0.1,0.2,0.2,0.3,0.3c0.1,0.1,0.2,0.2,0.3,0.3c0.1,0.1,0.2,0.2,0.3,0.3
				c0.1,0.1,0.2,0.2,0.3,0.3c0.1,0.1,0.2,0.2,0.3,0.3c0.1,0.1,0.2,0.2,0.3,0.3c0.1,0.1,0.2,0.2,0.3,0.3c0.1,0.1,0.2,0.2,0.3,0.3
				c0.1,0.1,0.2,0.2,0.3,0.3c0.1,0.1,0.2,0.2,0.3,0.3c0.1,0.1,0.2,0.2,0.3,0.3c0.1,0.1,0.2,0.2,0.3,0.3c0.1,0.1,0.2,0.2,0.3,0.3
				c0.1,0.1,0.2,0.2,0.3,0.3c0.1,0.1,0.2,0.2,0.3,0.3c0.1,0.1,0.2,0.2,0.3,0.3c0.1,0.1,0.2,0.2,0.3,0.3c0.1,0.1,0.2,0.2,0.3,0.3
				c0.1,0.1,0.2,0.2,0.3,0.3c0.1,0.1,0.2,0.2,0.3,0.3c0.1,0,0.2,0.1,0.3,0.3h9.1c2.4,0,4.5-0.3,6.4-1c1.8-0.6,3.4-1.6,4.7-2.9
				C113.1,75,114.1,73.4,114.7,71.6z"/>
			<path class="st4" d="M110.6,58.9c0,4.9-1.4,8.7-4.1,11.4c-2.7,2.7-6.5,4-11.4,4h-9.5V44.8h10.2c4.7,0,8.4,1.2,10.9,3.6
				C109.3,50.8,110.6,54.3,110.6,58.9L110.6,58.9z M102.3,59.2c0-2.7-0.5-4.7-1.6-6c-1.1-1.3-2.7-2-4.9-2h-2.3v16.5h1.8
				c2.4,0,4.2-0.7,5.3-2.1C101.8,64.2,102.3,62.1,102.3,59.2z"/>
			<path class="st3" d="M99.4,57.3c0.2,0.2,0.1,0.5,0,0.6c-0.2,0.2-0.5,0.1-0.6,0l-5.6-6.3c-0.2-0.2-0.1-0.5,0-0.6
				c0.2-0.2,0.5-0.1,0.6,0L99.4,57.3z"/>
			<path class="st3" d="M93.5,51.2v16.5h1.8c1.5,0,2.8-0.3,3.8-0.8v-9.3L93.5,51.2z"/>
			<path class="st3" d="M111,58.9c0,2.5-0.3,4.7-1,6.7c-0.7,2-1.7,3.6-3.1,5c-1.4,1.4-3.1,2.4-5,3.1c-1.9,0.7-4.2,1-6.7,1h-9.5
				c-0.2,0-0.4-0.2-0.4-0.4V44.8c0-0.2,0.2-0.4,0.4-0.4h10.2c2.4,0,4.5,0.3,6.4,0.9c1.9,0.6,3.5,1.6,4.8,2.8c1.3,1.3,2.3,2.8,3,4.6
				C110.7,54.5,111,56.6,111,58.9L111,58.9z M109.1,65.3c0.7-1.8,1-4,1-6.4c0-2.2-0.3-4.2-0.9-5.9c-0.6-1.7-1.5-3.1-2.8-4.3
				c-1.2-1.2-2.7-2-4.5-2.6c-1.8-0.6-3.8-0.9-6.1-0.9H86v28.5h9.1c2.4,0,4.5-0.3,6.4-1c1.8-0.6,3.4-1.6,4.7-2.9
				C107.5,68.7,108.5,67.1,109.1,65.3L109.1,65.3z M101.9,59.2c0-1.3-0.1-2.4-0.4-3.4c-0.3-0.9-0.6-1.7-1.1-2.3l0,0
				c-0.5-0.6-1.1-1-1.8-1.3c-0.8-0.3-1.7-0.5-2.7-0.5H94v15.6h1.3c1.2,0,2.1-0.2,3-0.5c0.8-0.3,1.5-0.8,2-1.4
				c0.5-0.7,0.9-1.5,1.2-2.5C101.8,61.8,101.9,60.6,101.9,59.2L101.9,59.2z M102.3,55.6c-0.3-1.1-0.7-1.9-1.3-2.6l0,0
				c-0.6-0.7-1.3-1.2-2.2-1.6c-0.9-0.3-1.9-0.5-3-0.5h-2.3c-0.2,0-0.4,0.2-0.4,0.4v16.5c0,0.2,0.2,0.4,0.4,0.4h1.8
				c1.3,0,2.4-0.2,3.3-0.6c1-0.4,1.7-0.9,2.4-1.7c0.6-0.8,1.1-1.7,1.3-2.8c0.3-1.1,0.4-2.4,0.4-3.9
				C102.8,57.8,102.6,56.6,102.3,55.6z"/>
			<path class="st5" d="M87.5,48c0-0.2,0.2-0.4,0.4-0.4c0.2,0,0.4,0.2,0.4,0.4v13c0,0.2-0.2,0.4-0.4,0.4c-0.2,0-0.4-0.2-0.4-0.4V48z
				"/>
		</g>
	</g>
	<polygon class="st4" points="32,30.8 29.8,35 32,39.1 27.3,38.3 24.1,41.7 23.4,37.1 19.2,35 23.4,32.9 24.1,28.3 27.3,31.6 	"/>
	<polygon class="st4" points="45.8,26.2 41.3,24.8 37.6,27.7 37.6,23 33.7,20.4 38.2,18.9 39.5,14.4 42.2,18.2 46.9,18 44.2,21.8 	
		"/>
	<polygon class="st4" points="96.4,30.8 98.6,35 96.4,39.1 101,38.3 104.3,41.7 104.9,37.1 109.2,35 104.9,32.9 104.3,28.3 
		101,31.6 	"/>
	<polygon class="st4" points="82,26.2 86.5,24.8 90.2,27.7 90.2,23 94.1,20.4 89.7,18.9 88.4,14.4 85.6,18.2 80.9,18 83.6,21.8 	"/>
	<polygon class="st4" points="68,20.8 63.9,18.5 59.7,20.6 60.6,16 57.3,12.7 62,12.1 64.1,7.9 66.1,12.2 70.8,13 67.3,16.2 	"/>
	<polygon class="st2" points="32,95.7 29.8,91.5 32,87.4 27.3,88.2 24.1,84.8 23.4,89.4 19.2,91.5 23.4,93.6 24.1,98.3 27.3,94.9 	
		"/>
	<polygon class="st2" points="45.8,100.3 41.3,101.7 37.6,98.8 37.6,103.5 33.7,106.1 38.2,107.6 39.5,112.1 42.2,108.4 46.9,108.5 
		44.2,104.7 	"/>
	<polygon class="st2" points="96.4,95.7 98.6,91.5 96.4,87.4 101,88.2 104.3,84.8 104.9,89.4 109.2,91.5 104.9,93.6 104.3,98.3 
		101,94.9 	"/>
	<polygon class="st2" points="82,100.3 86.5,101.7 90.2,98.8 90.2,103.5 94.1,106.1 89.7,107.6 88.4,112.1 85.6,108.4 80.9,108.5 
		83.6,104.7 	"/>
	<polygon class="st2" points="68,105.7 63.9,108 59.7,105.9 60.6,110.5 57.3,113.8 62,114.4 64.1,118.6 66.1,114.3 70.8,113.5 
		67.3,110.3 	"/>
</g>
</svg>
