<?xml version="1.0" encoding="utf-8"?>
<!-- Generator: Adobe Illustrator 22.0.1, SVG Export Plug-In . SVG Version: 6.00 Build 0)  -->
<svg version="1.1" id="Layer_1" xmlns="http://www.w3.org/2000/svg" xmlns:xlink="http://www.w3.org/1999/xlink" x="0px" y="0px"
	 viewBox="0 0 1080 1080" style="enable-background:new 0 0 1080 1080;" xml:space="preserve">
<style type="text/css">
	.st0{clip-path:url(#SVGID_2_);}
	.st1{clip-path:url(#SVGID_4_);}
	.st2{fill:#FF1D0C;stroke:#000000;stroke-width:5;stroke-miterlimit:10;}
	.st3{fill:#48DBFB;}
	.st4{fill:none;}
	.st5{fill:#6AB04C;stroke:#000000;stroke-width:5;stroke-miterlimit:10;}
	.st6{fill:#F8C291;stroke:#000000;stroke-width:5;stroke-miterlimit:10;}
	.st7{fill:#FF1717;stroke:#000000;stroke-width:5;stroke-miterlimit:10;}
	.st8{fill:#BA926D;}
	.st9{fill:#356321;stroke:#000000;stroke-width:5;stroke-miterlimit:10;}
	.st10{fill:none;stroke:#000000;stroke-width:5;stroke-miterlimit:10;}
	.st11{fill:#2D3436;stroke:#000000;stroke-width:5;stroke-miterlimit:10;}
	.st12{fill:#C0392B;stroke:#000000;stroke-width:5;stroke-miterlimit:10;}
	.st13{fill:#FFFF00;stroke:#000000;stroke-width:5;stroke-miterlimit:10;}
	.st14{fill:#D35400;stroke:#000000;stroke-width:5;stroke-miterlimit:10;}
	.st15{fill:#FF2051;stroke:#000000;stroke-width:5;stroke-miterlimit:10;}
	.st16{fill:#48DBFB;stroke:#000000;stroke-width:5;stroke-miterlimit:10;}
</style>
<g>
	<defs>
		<path id="SVGID_1_" d="M961.3,1080H123.1c-66.8,0-120.9-54.1-120.9-120.9V120.9C2.2,54.1,56.3,0,123.1,0h838.2
			c66.8,0,120.9,54.1,120.9,120.9v838.2C1082.2,1025.9,1028.1,1080,961.3,1080z"/>
	</defs>
	<clipPath id="SVGID_2_">
		<use xlink:href="#SVGID_1_"  style="overflow:visible;"/>
	</clipPath>
	<g class="st0">
		<defs>
			<rect id="SVGID_3_" x="2.2" width="1077.8" height="1080"/>
		</defs>
		<clipPath id="SVGID_4_">
			<use xlink:href="#SVGID_3_"  style="overflow:visible;"/>
		</clipPath>
		<g class="st1">
			<polygon class="st2" points="323.5,137.5 326.5,165.3 304,150 276.2,163.3 282.8,137 261.5,117.3 291,114.8 305,90.5 316,118 
				344.8,121.8 			"/>
			<image style="overflow:visible;" width="1080" height="1080" xlink:href="old/Untitled-1.png" >
			</image>
			<rect x="0.6" class="st3" width="1080" height="1080"/>
			<rect class="st4" width="1080" height="1080"/>
			<path class="st5" d="M429.1,859.6l183,73.5l176.7,66.4L837,1080H0V837.7"/>
			<path class="st6" d="M540.6,374.2c-0.2,99.7-6.7,238.4-33.2,321.9c-1.3,4-4.7,9.2-6,12.9c-41.2,70.8-48.8,84.6-96.7,120.7
				c-0.3,0.3-0.7,0.5-1,0.8c-0.8,0.6-1.5,1.2-2.3,1.8c-9.6,1.2-21.3,2.5-33.9,3.8c-1,0.1-2,0.2-2.9,0.3c-1.9,0.2-3.9,0.4-5.8,0.6
				c-1.5,0.1-2.9,0.3-4.4,0.4c-1.5,0.1-3,0.3-4.5,0.4c-0.9,0-1.7,0-2.5,0c-18.1,0-33,0-33,0l-32.7-9.3l-43.3-22.7
				c0,0-116.7-68-141.3-182.7c0.7,0-14-83-14-83l10.7-7.7L83,465l-7.3,4.7L75,444.3c0.1,0.2,0.1,0.1,0.1-0.3
				c2.2-4.7,4.1-9.9,5.7-15.5c0.2-0.5,0.3-1.1,0.5-1.7c0.1-0.5,0.3-1.1,0.4-1.6c0.2-0.6,0.3-1.2,0.5-1.8c0.2-0.6,0.3-1.1,0.4-1.7
				c0.4-1.6,0.7-3.1,1.1-4.7c0.2-0.8,0.3-1.5,0.5-2.3c0.1-0.6,0.2-1.2,0.4-1.8c0.2-1,0.4-2,0.6-3.1c0.1-0.8,0.3-1.5,0.4-2.3
				c0.1-0.6,0.2-1.2,0.3-1.8c0.2-1.1,0.3-2.2,0.5-3.3c0-0.1,0-0.2,0-0.3c0.2-1.2,0.3-2.3,0.5-3.4c0,0,0-0.1,0-0.1
				c0.1-1.2,0.3-2.4,0.4-3.5c0.3-2.4,0.6-4.8,0.8-7.2c0.1-1,0.2-2.1,0.3-3.1c0.1-0.6,0.1-1.1,0.1-1.7c0.1-1.1,0.2-2.1,0.3-3.1
				c0-0.5,0.1-1.1,0.1-1.6c0.1-0.8,0.1-1.6,0.2-2.3c0.1-1.3,0.2-2.6,0.2-3.8c0.1-0.8,0.1-1.6,0.1-2.4c0-0.9,0.1-1.8,0.1-2.7
				c0-0.4,0-0.8,0.1-1.3c0-0.4,0-0.8,0-1.3c0-0.4,0-0.8,0.1-1.2c0.3-9,0.3-14.7,0.3-14.7c1.4-0.4,2.8-0.8,4.2-1.2
				c1.4-0.4,2.8-0.8,4.2-1.1c1.6-0.4,3.2-0.9,4.8-1.3c1.2-0.3,2.3-0.6,3.4-0.9c0.5-0.1,0.9-0.2,1.4-0.4c1.4-0.4,2.7-0.7,4.1-1.1
				c1.8-0.5,3.6-0.9,5.4-1.4c0.9-0.2,1.8-0.5,2.7-0.7c1.8-0.4,3.6-0.9,5.3-1.3c1.5-0.4,3.1-0.8,4.6-1.1c1.1-0.3,2.2-0.5,3.3-0.8
				c0.9-0.2,1.7-0.4,2.6-0.6c2.6-0.6,5.2-1.2,7.7-1.8c1.7-0.4,3.4-0.8,5.1-1.1c0.4-0.1,0.8-0.2,1.3-0.3c0.6-0.1,1.3-0.3,1.9-0.4
				c0.6-0.1,1.3-0.3,1.9-0.4c0.9-0.2,1.9-0.4,2.8-0.6c0.1,0,0.3-0.1,0.4-0.1c1.4-0.3,2.8-0.6,4.2-0.9c1.2-0.3,2.4-0.5,3.6-0.7
				c1.2-0.3,2.4-0.5,3.6-0.7c4.8-1,9.4-1.8,13.9-2.7c1.1-0.2,2.2-0.4,3.3-0.6c0.4-0.1,0.7-0.1,1.1-0.2c1.5-0.3,2.9-0.5,4.3-0.8
				c2.8-0.5,5.5-1,8.1-1.4c1-0.2,2.1-0.4,3.1-0.5c0,0,0.1,0,0.1,0c0.8-0.1,1.5-0.2,2.2-0.4c0.9-0.2,1.9-0.3,2.8-0.5
				c0.6-0.1,1.3-0.2,1.9-0.3c1-0.1,1.9-0.3,2.8-0.4c0.8-0.1,1.5-0.2,2.3-0.4c1.7-0.3,3.3-0.5,4.9-0.8c0.8-0.1,1.5-0.2,2.3-0.3
				c1.5-0.2,2.9-0.4,4.3-0.6c0.4,0,0.8-0.1,1.2-0.2c0.8-0.1,1.6-0.2,2.3-0.3c0.4,0,0.8-0.1,1.1-0.2c1.1-0.2,2.2-0.3,3.3-0.5
				c0.4,0,0.7-0.1,1-0.1c0.3,0,0.7-0.1,1-0.1c0.7-0.1,1.3-0.2,2-0.3c0.3,0,0.7-0.1,1-0.1c1.3-0.2,2.5-0.3,3.6-0.5
				c0.3,0,0.6-0.1,0.9-0.1c0.7-0.1,1.3-0.2,1.9-0.2c0.2,0,0.3,0,0.5-0.1c0.4,0,0.8-0.1,1.1-0.1c0.4,0,0.7-0.1,1.1-0.1
				c0.2,0,0.5-0.1,0.7-0.1c0.2,0,0.5-0.1,0.7-0.1c0.2,0,0.4-0.1,0.6-0.1c0.6-0.1,1.1-0.1,1.6-0.2c1-0.1,1.9-0.2,2.7-0.3
				c0.2,0,0.4,0,0.6-0.1c0.1,0,0.2,0,0.3,0c0.3,0,0.5,0,0.7-0.1c0.2,0,0.4,0,0.6-0.1c0.2,0,0.3,0,0.5-0.1c0.6-0.1,0.9-0.1,0.9-0.1
				s137.9-19.8,282.3,17.5c0,2,0.1,4.1,0.1,6.2C540.6,350.5,540.7,362,540.6,374.2z"/>
			<path class="st5" d="M269.7,53C151.5,53.5,43.5,129.4,0,243.7v62c93-66,303-77.3,303-77.3s163.5,0,249.3,49.3
				C519.1,145,400.8,52.5,269.7,53z M302.4,185c-29.1,0-52.7-23.6-52.7-52.7s23.6-52.7,52.7-52.7s52.8,23.6,52.8,52.7
				S331.5,185,302.4,185z"/>
			<path class="st7" d="M355.2,132.3c0,29.1-23.6,52.7-52.8,52.7s-52.7-23.6-52.7-52.7s23.6-52.7,52.7-52.7S355.2,103.1,355.2,132.3
				z"/>
			<path class="st8" d="M663,482.3c-34.4-27.7-71.1-48.2-107.8-63.3c-7.9-3.2-15.7-6.2-23.6-9c-143-50.3-279.6-23.6-279.6-23.6
				s-0.3,0-0.9,0.1c-0.1,0-0.3,0-0.5,0.1c-0.2,0-0.4,0.1-0.6,0.1c-0.2,0-0.5,0.1-0.7,0.1c-0.1,0-0.2,0-0.3,0c-0.2,0-0.4,0.1-0.6,0.1
				c-0.8,0.1-1.7,0.3-2.7,0.4c-0.5,0.1-1,0.2-1.6,0.3c-0.2,0-0.4,0.1-0.6,0.1c-0.2,0-0.4,0.1-0.7,0.1c-0.2,0-0.4,0.1-0.7,0.1
				c-0.3,0.1-0.7,0.1-1.1,0.2c-0.4,0.1-0.7,0.1-1.1,0.2c-0.2,0-0.3,0.1-0.5,0.1c-0.6,0.1-1.2,0.2-1.9,0.3c-0.3,0.1-0.6,0.1-0.9,0.1
				c-1.1,0.2-2.3,0.4-3.6,0.6c-0.3,0.1-0.6,0.1-1,0.2c-0.6,0.1-1.3,0.2-2,0.4c-0.3,0.1-0.7,0.1-1,0.2c-0.3,0.1-0.7,0.1-1,0.2
				c-1,0.2-2.1,0.4-3.2,0.6c-0.4,0.1-0.7,0.1-1.1,0.2c-0.8,0.1-1.5,0.3-2.3,0.4c-0.4,0.1-0.8,0.2-1.2,0.2c-1.4,0.3-2.8,0.6-4.2,0.9
				c-0.7,0.1-1.5,0.3-2.3,0.5c-1.6,0.3-3.2,0.7-4.9,1c-0.7,0.1-1.5,0.3-2.2,0.5c-0.9,0.2-1.9,0.4-2.8,0.6c-0.6,0.1-1.3,0.3-1.9,0.4
				c-0.9,0.2-1.8,0.4-2.8,0.6c-0.7,0.2-1.4,0.3-2.2,0.5c0,0-0.1,0-0.1,0c-1,0.2-2,0.5-3,0.7c-2.6,0.6-5.3,1.2-8.1,1.9
				c-1.4,0.3-2.8,0.7-4.3,1.1c-0.4,0.1-0.7,0.2-1.1,0.3c-1.1,0.3-2.2,0.6-3.3,0.8c-4.4,1.1-9,2.3-13.7,3.6c-1.2,0.3-2.4,0.6-3.5,1
				c-1.2,0.3-2.4,0.7-3.6,1c-1.4,0.4-2.8,0.8-4.2,1.2c-0.1,0-0.3,0.1-0.4,0.1c-0.9,0.3-1.8,0.5-2.8,0.8c-0.6,0.2-1.2,0.4-1.9,0.5
				c-0.6,0.2-1.2,0.4-1.9,0.6c-0.4,0.1-0.8,0.2-1.2,0.4c-1.7,0.5-3.3,1-5,1.5c-2.5,0.8-5.1,1.6-7.7,2.4c-0.9,0.3-1.7,0.5-2.6,0.8
				c-1.1,0.3-2.2,0.7-3.2,1c-1.5,0.5-3.1,1-4.6,1.5c-1.8,0.6-3.5,1.2-5.3,1.8c-0.9,0.3-1.8,0.6-2.7,0.9c-1.8,0.6-3.6,1.2-5.4,1.8
				c-1.3,0.5-2.7,1-4,1.4c-0.4,0.2-0.9,0.3-1.4,0.5c-1.1,0.4-2.3,0.8-3.4,1.2c-1.6,0.6-3.2,1.2-4.8,1.8c-1.4,0.5-2.7,1-4.1,1.5
				c-1.4,0.5-2.8,1.1-4.1,1.6c-3.7,1.4-7.4,2.9-11.1,4.4c-1.9,0.8-3.7,1.5-5.6,2.3c-1.9,0.8-3.7,1.6-5.6,2.3
				c-1.6,0.7-3.2,1.4-4.8,2.1c-3.2,1.4-6.4,2.8-9.5,4.2c-1.6,0.7-3.2,1.5-4.8,2.2c-1,0.4-1.9,0.9-2.9,1.3c-1,0.4-1.9,0.9-2.9,1.4
				c-1,0.5-1.9,0.9-2.9,1.4c-1,0.5-1.9,0.9-2.9,1.4c-0.1,0.1-0.2,0.1-0.3,0.1c-1.4,0.7-2.9,1.4-4.3,2.1c-1.5,0.8-3,1.5-4.6,2.3
				c-1.5,0.8-3,1.6-4.6,2.4c-2,1.1-4.1,2.1-6.1,3.3c-1.3,0.7-2.5,1.4-3.8,2.1c-1.3,0.7-2.5,1.4-3.8,2.1c-1.2,0.7-2.5,1.4-3.7,2.1
				c-0.9,0.5-1.7,1-2.5,1.5c-0.9,0.5-1.8,1.1-2.7,1.6V372.5c92.1-89.1,300-104.4,300-104.4s161.9,0,246.9,66.6
				C622,384.2,664.3,483.2,663,482.3z"/>
			<path class="st5" d="M673,387c-34.8-20.5-71.8-35.7-108.8-46.9c-7.9-2.4-15.9-4.6-23.8-6.6C395.9,296.2,258,316,258,316
				s-0.3,0-0.9,0.1c-0.2,0-0.3,0-0.5,0.1c-0.2,0-0.4,0-0.6,0.1c-0.2,0-0.5,0-0.7,0.1c-0.1,0-0.2,0-0.3,0c-0.2,0-0.4,0-0.6,0.1
				c-0.8,0.1-1.7,0.2-2.7,0.3c-0.5,0.1-1,0.1-1.6,0.2c-0.2,0-0.4,0-0.6,0.1c-0.2,0-0.5,0-0.7,0.1c-0.2,0-0.5,0.1-0.7,0.1
				c-0.3,0-0.7,0.1-1.1,0.1c-0.4,0-0.8,0.1-1.1,0.1c-0.2,0-0.3,0-0.5,0.1c-0.6,0.1-1.3,0.2-1.9,0.2c-0.3,0-0.6,0.1-0.9,0.1
				c-1.1,0.2-2.4,0.3-3.6,0.5c-0.3,0-0.6,0.1-1,0.1c-0.7,0.1-1.3,0.2-2,0.3c-0.3,0-0.7,0.1-1,0.1c-0.3,0-0.7,0.1-1,0.1
				c-1.1,0.1-2.1,0.3-3.3,0.5c-0.4,0-0.8,0.1-1.1,0.2c-0.8,0.1-1.5,0.2-2.3,0.3c-0.4,0.1-0.8,0.1-1.2,0.2c-1.4,0.2-2.8,0.4-4.3,0.6
				c-0.8,0.1-1.5,0.2-2.3,0.3c-1.6,0.2-3.3,0.5-4.9,0.8c-0.8,0.1-1.5,0.2-2.3,0.4c-0.9,0.1-1.9,0.3-2.8,0.4
				c-0.6,0.1-1.3,0.2-1.9,0.3c-0.9,0.2-1.8,0.3-2.8,0.5c-0.7,0.1-1.5,0.2-2.2,0.4c0,0-0.1,0-0.1,0c-1,0.2-2,0.3-3.1,0.5
				c-2.7,0.4-5.4,0.9-8.1,1.4c-1.4,0.3-2.9,0.5-4.3,0.8c-0.4,0.1-0.7,0.1-1.1,0.2c-1.1,0.2-2.2,0.4-3.3,0.6
				c-4.5,0.8-9.1,1.7-13.9,2.7c-1.2,0.2-2.4,0.5-3.6,0.7c-1.2,0.2-2.4,0.5-3.6,0.7c-1.4,0.3-2.8,0.6-4.2,0.9c-0.1,0-0.3,0.1-0.4,0.1
				c-0.9,0.2-1.8,0.4-2.8,0.6c-0.6,0.1-1.2,0.3-1.9,0.4c-0.6,0.1-1.3,0.3-1.9,0.4c-0.4,0.1-0.8,0.2-1.3,0.3
				c-1.7,0.4-3.4,0.7-5.1,1.1c-2.6,0.6-5.1,1.2-7.7,1.8c-0.9,0.2-1.7,0.4-2.6,0.6c-1.1,0.3-2.2,0.5-3.3,0.8
				c-1.5,0.4-3.1,0.7-4.6,1.1c-1.8,0.4-3.5,0.9-5.3,1.3c-0.9,0.2-1.8,0.4-2.7,0.7c-1.8,0.4-3.6,0.9-5.4,1.4
				c-1.4,0.3-2.7,0.7-4.1,1.1c-0.4,0.1-0.9,0.2-1.4,0.4c-1.1,0.3-2.3,0.6-3.4,0.9c-1.6,0.4-3.2,0.9-4.8,1.3
				c-1.4,0.4-2.8,0.8-4.2,1.1c-1.4,0.4-2.8,0.8-4.2,1.2c-3.7,1-7.5,2.1-11.2,3.2c-1.9,0.6-3.8,1.1-5.6,1.7s-3.8,1.1-5.6,1.7
				c-1.6,0.5-3.2,1-4.8,1.5c-3.2,1-6.4,2.1-9.6,3.1c-1.6,0.5-3.2,1.1-4.8,1.6c-1,0.3-1.9,0.7-2.9,1c-1,0.3-1.9,0.7-2.9,1
				c-1,0.3-1.9,0.7-2.9,1c-1,0.3-1.9,0.7-2.9,1c-0.1,0-0.2,0.1-0.3,0.1c-1.4,0.5-2.9,1-4.3,1.6c-1.5,0.6-3.1,1.1-4.6,1.7
				c-1.5,0.6-3.1,1.2-4.6,1.8c-2.1,0.8-4.1,1.6-6.2,2.4c-1.3,0.5-2.5,1-3.8,1.5c-1.3,0.5-2.5,1-3.8,1.5c-1.3,0.5-2.5,1-3.8,1.6
				c-0.9,0.4-1.7,0.7-2.6,1.1c-0.9,0.4-1.9,0.8-2.8,1.2v-74.5c93-66,303-77.3,303-77.3s163.5,0,249.3,49.3
				C631.7,314.3,674.3,387.7,673,387z"/>
			<path class="st9" d="M548.7,560c21.3-82.5,12.4-184,15.5-219.9c37.1,11.2,74.1,26.4,108.8,46.9C723.7,502.3,548.7,560,548.7,560z
				"/>
			<path class="st10" d="M67.6,355.4l-30.8,10.3C47.1,362,57.4,358.6,67.6,355.4z"/>
			<path class="st5" d="M450.1,1015.8c0.6,1.4-0.9,2.8-2.3,2.1c-9.3-4.6-33.3-17.8-50.5-40.3c0.2,0-25.7-22.8-53.1,1.1
				c-3,2.6-6,5.8-9.1,9.7c-0.1,0.1-0.1,0.1-0.2,0.2c-1.1,2.2-28.2,42.2-30.8,46.1l-0.2,0.3c-2.4,1.8,29.5-130.3,63-197.9
				c0.3-0.5,0.8-0.9,1.3-0.9c12.2-1.2,23.6-2.5,32.9-3.7c9.7-1.2,17.2-2.4,21-3.4c1-0.3,1.9,0.4,2.1,1.4l4.6,29.1c0,0.1,0,0.3,0,0.4
				C428.7,864.4,422.7,947.1,450.1,1015.8z"/>
			<path class="st6" d="M81.2,664.7c-3.3-0.9-6.7-0.1-7.1,0c0,0,0,0,0,0c-0.2,0-0.4,0.1-0.6,0.1c-0.2,0-0.4,0-0.6,0.1
				c-0.2,0-0.4,0-0.6,0c-0.2,0-0.4,0-0.5,0c-0.4,0-0.7,0-1.1,0c-0.1,0-0.1,0-0.2,0c-0.2,0-0.4,0-0.6-0.1c-0.8-0.1-1.6-0.3-2.4-0.6
				c-0.2-0.1-0.4-0.1-0.6-0.2c-0.3-0.1-0.5-0.2-0.8-0.3c-0.2-0.1-0.4-0.2-0.6-0.3c-0.4-0.2-0.8-0.4-1.1-0.6
				c-0.1-0.1-0.3-0.2-0.4-0.3c-4.3-2.7-7.6-7.2-10-11.3c-0.2-0.3-0.3-0.5-0.5-0.8c-1.1-1.9-1.9-3.6-2.6-5c-0.1-0.1-0.1-0.3-0.2-0.4
				c-0.3-0.6-0.5-1.2-0.7-1.6c0-0.1-0.1-0.2-0.1-0.2c-0.2-0.4-0.3-0.7-0.3-0.8l-0.2-0.4c0,0,0-0.1,0-0.1c-0.1-0.4-0.1-0.7-0.2-1.1
				c-0.1-0.4-0.2-0.8-0.3-1.2c-0.1-0.4-0.2-0.8-0.3-1.2c-0.5-1.9-1-3.9-1.7-5.8c-0.2-0.7-0.5-1.5-0.7-2.2c-0.5-1.5-1.1-3-1.7-4.5
				c-0.4-1-0.8-2-1.3-3c-0.2-0.5-0.4-0.9-0.6-1.3c-0.3-0.6-0.6-1.3-0.9-1.9c-0.4-0.8-0.8-1.5-1.1-2.3c-0.2-0.3-0.3-0.7-0.5-1
				c-0.2-0.3-0.3-0.7-0.5-1c-0.5-1-1-1.9-1.5-2.8c-1.6-2.9-3.3-5.7-4.9-8.2c-0.4-0.7-0.9-1.4-1.3-2c-0.2-0.3-0.4-0.7-0.7-1
				c-0.3-0.5-0.7-1-1-1.5c-1.1-1.7-2.1-3.2-3-4.5c-0.2-0.4-0.5-0.7-0.7-1c-0.4-0.5-0.7-1-1-1.4c-0.2-0.3-0.4-0.5-0.5-0.8
				c-0.3-0.5-0.6-0.9-0.8-1.3c-0.1-0.2-1.7-2.3-2.2-2.9c-0.4-0.5-0.9-1.1-1.3-1.7c0-0.1-0.1-0.1-0.1-0.2c-0.4-0.5-0.8-1.1-1.3-1.7
				c-0.8-1.1-1.5-2.2-2.3-3.3c-0.2-0.4-0.5-0.7-0.7-1.1c-1.8-2.8-3.4-5.6-4.8-8.2c-0.2-0.3-0.3-0.6-0.5-0.9c-0.5-0.9-1-1.8-1.4-2.7
				c-0.1-0.2-0.2-0.3-0.3-0.5c-0.7-1.4-1.3-2.5-1.7-3.3c-0.1-0.2-0.1-0.3-0.2-0.4c0-0.1-0.1-0.1-0.1-0.2c0-0.1-0.1-0.2-0.1-0.2
				c-0.1-0.2-0.2-0.3-0.2-0.4c0-0.1,0-0.1-0.1-0.2c-0.2-0.9-0.4-1.8-0.7-2.7c-1.1-4.4-1.9-8.5-2.6-12.3c-0.3-1.5-0.5-2.9-0.7-4.3
				c-1.6-10.9-1.5-19.4-0.4-26c0-0.2,0.1-0.4,0.1-0.6c0.1-0.5,0.2-1.1,0.3-1.6c0.1-0.3,0.1-0.6,0.2-0.9c0.5-2.3,1.2-4.3,1.9-6.1
				c0.3-0.7,0.6-1.3,0.9-2c0.1-0.3,0.3-0.5,0.4-0.8c0.2-0.4,0.4-0.8,0.6-1.1c0.9-1.6,1.9-3,2.9-4.1c0.2-0.3,0.4-0.5,0.7-0.7
				c0.2-0.2,0.3-0.3,0.5-0.5c0.1-0.1,0.3-0.2,0.4-0.4c0.3-0.2,0.5-0.4,0.8-0.6c0.1-0.1,0.2-0.2,0.3-0.3c0.3-0.2,0.5-0.4,0.8-0.6
				c0.1-0.1,0.2-0.2,0.4-0.3c0.1-0.1,0.2-0.2,0.4-0.2c0.4-0.3,0.7-0.5,1.1-0.7c0.2-0.1,0.3-0.2,0.5-0.3c0.6-0.3,1.2-0.6,1.7-0.7
				c0.1,0,0.1-0.1,0.2-0.1c0.2-0.1,0.3-0.1,0.4-0.2c0.7-0.2,1.5,0.1,1.9,0.7c0,0,0,0,0,0c0.3,0.6,0.7,1.1,1,1.7
				c5.2,8.5,11.6,17.8,19.1,27.5v0l4.7,24.6c0.2,0.8,0.9,1.4,1.7,1.4h2.5c0.8,0,1.5,0.6,1.7,1.4c0,0.3,0.1,0.5,0.2,0.8
				c0,0.2,0.1,0.4,0.1,0.6c0.1,0.3,0.1,0.6,0.2,1c0.2,1.1,0.5,2.3,0.8,3.8c0.1,0.6,0.3,1.2,0.4,1.8c0.5,2.2,1.1,4.8,1.7,7.8
				c0.1,0.5,0.2,0.9,0.3,1.4c0.3,1.4,0.7,2.9,1.1,4.5c0.1,0.4,0.2,0.7,0.3,1.1c0.9,3.7,1.9,7.8,3,12.2c0.2,0.7,0.3,1.3,0.5,2
				c1.6,6.1,3.4,12.8,5.5,20c0.2,0.8,0.4,1.5,0.7,2.3c0.7,2.3,1.4,4.6,2.1,7c0.2,0.8,0.5,1.6,0.7,2.4c0.7,2.4,1.5,4.8,2.3,7.3
				c0.5,1.5,1,3.1,1.5,4.6c0.8,2.6,1.7,5.3,2.6,7.9c0.6,1.7,1.1,3.4,1.8,5.1c1.8,5.3,3.8,10.7,5.8,16.2
				C82.9,663.4,82.3,665,81.2,664.7z"/>
			<path class="st9" d="M7.3,563.3H0V450c0,4.6,5.7,21.8,19.5,45C15.9,495.8-8.1,502.8,7.3,563.3z"/>
			<path class="st11" d="M75.1,444c0.2-6.5-7.5-88.7-7.5-88.7c1.9-0.6,3.8-1.2,5.6-1.7s3.8-1.1,5.6-1.7c3.7-1.1,7.5-2.2,11.2-3.2
				C90.1,348.7,91,410.6,75.1,444z"/>
			<path class="st11" d="M33.3,489l7,36.3c-8.4-10.8-15.2-21-20.8-30.3C5.7,471.9,0,454.7,0,450v-69.9c0.9-0.4,1.8-0.8,2.8-1.2
				c0.8-0.4,1.7-0.7,2.6-1.1c1.3-0.5,2.5-1,3.8-1.6c1.3-0.5,2.5-1,3.8-1.5c1.3-0.5,2.5-1,3.8-1.5c2.1-0.8,4.1-1.6,6.2-2.4
				c1.5-0.6,3.1-1.2,4.6-1.8c1.5-0.6,3.1-1.2,4.6-1.7c1.4-0.5,2.9-1.1,4.3-1.6c0.1,0,0.2-0.1,0.3-0.1l6.5,116.6L33.3,489z"/>
			<path class="st12" d="M548.7,560c3.7,6.3-26.7,109.7-26.7,109.7s-19,46.3-27.4,64.8c-9.5,22.6-70.4,93.8-70.4,93.8
				c-2.8,1.1-11.2,2.5-22.8,3.9c1.1-0.9,2.3-1.7,3.3-2.5c47.5-36.1,49.2-52.8,98.8-122.1c1.2-2,2.5-6,3.9-11.5
				c12-48.1,29.4-217.7,32.5-322.1c0.5-15,0.6-28.7,0.4-40.5c7.9,2,15.9,4.3,23.8,6.6c-0.8,9.5-0.8,23.5-0.7,40.6
				C563.7,428.3,564.4,499.3,548.7,560z"/>
			<polygon class="st13" points="323.5,137.5 326.5,165.3 304,150 276.2,163.3 282.8,137 261.5,117.3 291,114.8 305,90.5 316,118 
				344.8,121.8 			"/>
			<line class="st10" x1="564.2" y1="340.1" x2="564.2" y2="340.1"/>
			<path class="st12" d="M75.7,469.7l-32.3,12.7l-6.5-116.6l30.8-10.3c0,0,7.7,82.1,7.5,88.7c0,0.1-0.1,0.2-0.1,0.3L75.7,469.7z"/>
			<path class="st12" d="M314.8,840.9c-26.4,2.3-47.7,4-49.6,4.1c-0.1,0-0.2,0-0.3,0c-29-2.8-83.8-41-87.7-44.5
				c-0.1-0.1-0.2-0.2-0.3-0.2c-0.6-0.4-1.3-0.8-1.9-1.1c-1.4-0.8-2.8-1.7-4.1-2.6c-0.7-0.4-1.3-0.9-1.9-1.3
				c-0.1-0.1-0.2-0.2-0.4-0.3c-0.6-0.4-1.2-0.8-1.8-1.3c-1.2-0.9-2.4-1.8-3.5-2.7c-0.4-0.3-0.8-0.7-1.2-1c-1.1-0.9-2.2-1.8-3.3-2.7
				c-0.6-0.5-1.1-1-1.7-1.5c-0.6-0.5-1.2-1.1-1.8-1.6c-0.4-0.4-0.9-0.8-1.3-1.2c-0.4-0.4-0.8-0.8-1.2-1.1c-0.5-0.4-0.9-0.9-1.3-1.3
				c-1.2-1.2-2.5-2.4-3.7-3.7c0,0-0.1-0.1-0.1-0.1c-0.6-0.6-1.1-1.2-1.7-1.8c-0.5-0.5-1-1-1.4-1.6c-1.9-2.1-3.8-4.2-5.6-6.5
				c-0.9-1.1-1.8-2.2-2.7-3.3c-1.7-2.2-3.4-4.3-5-6.6c-0.4-0.5-0.8-1.1-1.2-1.6c-2.5-3.5-5-7.1-7.4-10.8c-0.5-0.7-0.9-1.4-1.4-2.2
				c-0.6-0.9-1.1-1.8-1.7-2.6c-0.5-0.8-1-1.6-1.5-2.4c-1-1.6-2-3.3-2.9-4.9c-1-1.7-1.9-3.3-2.9-5c-3.7-6.5-7.2-13.2-10.5-20
				c-0.8-1.7-1.6-3.3-2.4-5c-0.1-0.3-0.3-0.6-0.4-0.8c-0.6-1.2-1.2-2.5-1.7-3.7c-0.3-0.5-0.5-1.1-0.7-1.6c-0.6-1.4-1.3-2.8-1.9-4.1
				c-0.8-1.7-1.5-3.4-2.3-5.2c-0.4-0.8-0.7-1.7-1.1-2.5c-0.6-1.4-1.2-2.7-1.7-4.1c-0.1-0.3-0.3-0.6-0.4-1c-0.7-1.7-1.4-3.4-2.1-5.1
				c-1.4-3.4-2.7-6.8-4-10.1c-0.2-0.6-0.5-1.2-0.7-1.8c-2-5.5-4-10.9-5.8-16.2c-0.6-1.7-1.2-3.4-1.8-5.1c-0.9-2.7-1.8-5.3-2.6-7.9
				c-0.5-1.5-1-3.1-1.5-4.6c-0.8-2.5-1.5-4.9-2.3-7.3c-0.2-0.8-0.5-1.6-0.7-2.4c-0.7-2.4-1.4-4.7-2.1-7c-0.2-0.8-0.4-1.5-0.7-2.3
				c-2.1-7.1-3.9-13.8-5.5-20c-0.2-0.7-0.3-1.4-0.5-2c-1.1-4.4-2.1-8.5-3-12.2c-0.1-0.4-0.2-0.7-0.3-1.1c-0.4-1.6-0.7-3.1-1.1-4.5
				c-0.1-0.5-0.2-0.9-0.3-1.4c-0.7-2.9-1.3-5.5-1.7-7.8c-0.1-0.6-0.3-1.2-0.4-1.8c-0.3-1.5-0.6-2.8-0.8-3.8c-0.1-0.3-0.1-0.7-0.2-1
				c0-0.2-0.1-0.4-0.1-0.6c-0.1-0.3-0.1-0.6-0.2-0.8c0,0,0,0,0,0c-0.2-0.8,0.3-1.5,1-1.8l29.2-10.2c0.9-0.3,1.9,0.3,2.1,1.2
				c2.1,11.9,13.6,77.4,13.7,81l0,0.4c24.8,114.5,141.3,182.4,141.3,182.4l43.2,22.6c0.1,0.1,0.2,0.1,0.3,0.1l32.3,9.2
				c0.1,0,0.3,0.1,0.4,0.1c0,0,0,0,0.1,0C316.7,837.7,316.8,840.7,314.8,840.9z"/>
			<polygon class="st14" points="93.7,532.3 83,540 50.7,551.3 45.3,551.3 40.3,525.3 40.3,525.3 33.3,489 43.3,482.3 75.7,469.7 
				83,465 			"/>
			<path class="st10" d="M401.3,832.3c-0.2,0.1-0.4,0.3-0.5,0.4"/>
			<line class="st10" x1="540.3" y1="333.5" x2="540.3" y2="333.4"/>
			<path class="st10" d="M20,495c0,0-0.2,0-0.5,0.1"/>
			<path class="st6" d="M366.6,837.8C333.2,905.7,304.5,1033,304,1035l0,0c-1.7-5.4-3.8-11-6.3-16.7c0,0,0-0.1,0-0.1
				c-0.2-0.4-0.4-0.8-0.5-1.2c0,0,0,0,0-0.1c-0.8-1.7-1.6-3.4-2.4-5.1c-0.3-0.5-0.5-1-0.7-1.4c-0.7-1.5-1.5-2.9-2.2-4.4
				c-0.4-0.7-0.8-1.5-1.2-2.2c-0.4-0.7-0.8-1.5-1.2-2.2c-0.8-1.5-1.6-3-2.5-4.5c-1.8-3.1-3.6-6.2-5.5-9.3c-0.9-1.4-1.8-2.9-2.7-4.3
				c-1-1.5-2-3.1-3-4.6c-0.5-0.8-1-1.6-1.5-2.3c-0.5-0.8-1-1.5-1.5-2.3c-2.6-3.9-5.3-7.8-8.1-11.8c-1-1.4-2-2.8-3-4.2
				c-1.5-2-3-4.1-4.5-6.1c-0.9-1.2-1.8-2.4-2.7-3.6c-0.7-0.9-1.3-1.7-2-2.6c-0.6-0.8-1.2-1.6-1.8-2.4c-3.1-4-6.3-8.1-9.5-12.1
				c-1.1-1.4-2.2-2.8-3.3-4.1c-2.4-2.9-4.7-5.8-7.1-8.7c-0.7-0.8-1.4-1.7-2.1-2.5c-0.2-0.3-0.4-0.5-0.6-0.8
				c-1.2-1.4-2.4-2.9-3.6-4.3c-7.2-8.4-14.5-16.7-21.7-24.7c-0.5-0.6-1-1.2-1.6-1.7c-21-23-41.6-44-58.3-60.3
				c-0.9-0.8-1.7-1.7-2.5-2.5c-9.7-9.4-17.8-17.1-23.8-22.7c-0.3-0.3-0.6-0.6-0.9-0.8c-0.6-0.5-1-0.9-1.3-1.2
				c-0.3-0.3-0.6-0.6-1-0.9c-0.7-0.7-1.3-1.2-1.8-1.6c-0.3-0.3-0.5-0.5-0.8-0.7c-3.8-3.5-5.8-5.3-5.8-5.2c-1.1-0.7-2.1-1.4-3.1-2.2
				c-0.2-0.2-0.5-0.4-0.7-0.6c-0.3-0.3-0.6-0.5-0.8-0.8c-0.2-0.2-0.4-0.4-0.6-0.6c-0.3-0.3-0.6-0.6-0.9-0.9
				c-0.2-0.2-0.3-0.4-0.5-0.6c-1.3-1.5-2.6-3.1-3.7-4.8c-0.2-0.3-0.4-0.6-0.6-0.9c-0.7-1.1-1.4-2.3-2.1-3.4
				c-0.2-0.3-0.3-0.6-0.5-0.9c-0.6-1.1-1.2-2.2-1.7-3.3c-0.3-0.6-0.6-1.2-0.8-1.8c-0.1-0.3-0.3-0.7-0.4-1c-0.1-0.3-0.3-0.6-0.4-0.9
				c-1-2.4-1.9-4.7-2.6-6.9c-0.1-0.3-0.2-0.6-0.3-0.9c-1.4-4.3-2.4-8-3-10.5c-0.1-0.6-0.3-1.2-0.4-1.6c-0.1-0.3-0.1-0.5-0.2-0.7
				c0-0.1,0-0.2,0-0.3c0-0.1,0-0.2-0.1-0.3c0-0.1,0-0.2,0-0.3c0,0,0,0,0,0l0-0.3l-4.9-42.1l-1-8.8c0,0,0-28-1-29c-0.1,0-0.2,0-0.3,0
				c0.5-0.1,3.8-0.9,7.1,0c1,0.3,1.7-1.4,1.2-2.4c1.5,4,3.1,8,4.7,12c0.7,1.7,1.4,3.4,2.1,5.1c0.1,0.3,0.3,0.6,0.4,1
				c0.6,1.4,1.2,2.7,1.7,4.1c0.4,0.8,0.7,1.7,1.1,2.5c0.7,1.7,1.5,3.4,2.3,5.2c0.6,1.4,1.2,2.8,1.9,4.1c0.2,0.5,0.5,1.1,0.7,1.6
				c0.6,1.2,1.1,2.5,1.7,3.7c0.1,0.3,0.3,0.5,0.4,0.8c0.8,1.7,1.6,3.3,2.4,5c3.3,6.8,6.8,13.5,10.5,20c0.9,1.7,1.9,3.3,2.9,5
				c1,1.6,1.9,3.3,2.9,4.9c0.5,0.8,1,1.6,1.5,2.4c0.5,0.9,1.1,1.8,1.7,2.6c0.5,0.7,0.9,1.4,1.4,2.2c2.4,3.7,4.9,7.3,7.4,10.8
				c0.4,0.5,0.8,1.1,1.2,1.6c1.7,2.3,3.3,4.4,5,6.6c0.9,1.1,1.8,2.2,2.7,3.3c1.8,2.2,3.7,4.4,5.6,6.5c0.5,0.5,1,1,1.4,1.6
				c0.6,0.6,1.1,1.2,1.7,1.8c0,0,0.1,0.1,0.1,0.1c1.2,1.3,2.4,2.5,3.7,3.7c0.5,0.4,0.9,0.9,1.3,1.3c0.4,0.4,0.8,0.8,1.2,1.1
				c0.4,0.4,0.9,0.8,1.3,1.2c0.6,0.5,1.2,1.1,1.8,1.6c0.6,0.5,1.1,1,1.7,1.5c1.1,0.9,2.2,1.9,3.3,2.7c0.4,0.3,0.8,0.7,1.2,1
				c1.2,0.9,2.3,1.8,3.5,2.7c0.6,0.4,1.2,0.9,1.8,1.3c0.1,0.1,0.2,0.2,0.4,0.3c0.6,0.4,1.3,0.9,1.9,1.3c1.3,0.9,2.7,1.8,4.1,2.6
				c0.7,0.4,1.4,0.8,2.1,1.2c0.2,0.2,0.5,0.5,1.1,0.9c0.5,0.4,1.3,1,2.2,1.6c0,0,0,0,0,0c1.1,0.8,2.5,1.8,4.1,2.9c0,0,0.1,0,0.1,0.1
				c1,0.7,2,1.4,3.2,2.2c0.7,0.5,1.4,1,2.2,1.5c0.5,0.3,1,0.6,1.5,1c1.2,0.8,2.5,1.6,3.8,2.5c0.1,0.1,0.2,0.1,0.3,0.2
				c0.8,0.5,1.7,1.1,2.6,1.6c1.6,1,3.2,2,4.9,3c0.5,0.3,1,0.7,1.6,1c2.1,1.3,4.3,2.6,6.6,3.9c1,0.6,1.9,1.1,2.9,1.7
				c2.5,1.4,5.1,2.9,7.6,4.2c1.1,0.6,2.3,1.2,3.4,1.8c0.6,0.3,1.2,0.6,1.8,0.9c1.2,0.6,2.4,1.2,3.6,1.8c1.2,0.6,2.4,1.2,3.6,1.7
				c1.2,0.6,2.4,1.1,3.6,1.6c2.4,1.1,4.7,2.1,7,3c1.2,0.5,2.3,0.9,3.4,1.3c0.6,0.2,1.2,0.4,1.7,0.6c0.5,0.2,1.1,0.4,1.6,0.5
				c0.5,0.2,1.1,0.4,1.6,0.5c0.5,0.2,1.1,0.3,1.6,0.5c0.6,0.2,1.2,0.3,1.8,0.5c0.4,0.1,0.8,0.2,1.1,0.3c0.4,0.1,0.9,0.2,1.3,0.3
				c0.4,0.1,0.8,0.2,1.2,0.3c0.4,0.1,0.8,0.2,1.2,0.2c0.3,0.1,0.6,0.1,0.9,0.1c0.1,0,0.3,0,0.4,0.1c0.3,0,0.5,0.1,0.8,0.1
				c0.3,0,0.6,0.1,0.9,0.1c0.1,0,0.1,0,0.2,0c0,0,0,0,0,0c0.3,0,0.5,0.1,0.8,0.1c0,0,43.3-3.4,84.8-7.3c1.5-0.1,3-0.3,4.5-0.4
				c1.5-0.1,3-0.3,4.4-0.4c2.3-0.2,4.5-0.4,6.8-0.7C366,836.9,366.1,837.1,366.6,837.8z"/>
			<line class="st10" x1="367.5" y1="836" x2="367.5" y2="836"/>
			<path class="st8" d="M347.2,837.7c-41.2,3.9-84,7.3-84,7.3c-29-2.7-84.5-42-87.1-44.7c-0.7-0.4-1.4-0.8-2.1-1.2
				c-1.4-0.8-2.7-1.7-4.1-2.6c-0.6-0.4-1.3-0.9-1.9-1.3c-0.1-0.1-0.2-0.2-0.3-0.3c-0.6-0.4-1.2-0.8-1.8-1.3
				c-1.2-0.9-2.3-1.8-3.5-2.7c-0.4-0.3-0.8-0.7-1.2-1c-1.1-0.9-2.2-1.8-3.3-2.7c-0.6-0.5-1.1-1-1.7-1.5c-0.6-0.5-1.2-1.1-1.8-1.6
				c-0.4-0.4-0.9-0.8-1.3-1.2c-0.4-0.4-0.8-0.8-1.2-1.1c-0.4-0.4-0.9-0.9-1.3-1.3c-1.2-1.2-2.4-2.4-3.6-3.7c0,0-0.1-0.1-0.1-0.1
				c-0.6-0.6-1.1-1.2-1.7-1.8c-0.5-0.5-1-1-1.4-1.6c-1.9-2.1-3.7-4.2-5.5-6.5c-0.9-1.1-1.8-2.2-2.7-3.3c-1.7-2.2-3.3-4.3-5-6.6
				c-0.4-0.5-0.8-1.1-1.2-1.6c-2.5-3.5-5-7.1-7.3-10.8c-0.5-0.7-0.9-1.4-1.4-2.2c-0.6-0.9-1.1-1.8-1.6-2.6c-0.5-0.8-1-1.6-1.5-2.4
				c-1-1.6-2-3.3-2.9-4.9c-1-1.7-1.9-3.3-2.8-5c-3.6-6.5-7.1-13.2-10.4-20c-0.8-1.7-1.6-3.3-2.4-5c-0.1-0.3-0.3-0.6-0.4-0.8
				c-0.6-1.2-1.1-2.5-1.7-3.7c-0.2-0.5-0.5-1.1-0.7-1.6c-0.6-1.4-1.2-2.8-1.8-4.1c-0.8-1.7-1.5-3.4-2.2-5.2
				c-0.4-0.8-0.7-1.7-1.1-2.5c-0.6-1.4-1.1-2.7-1.7-4.1c-0.1-0.3-0.3-0.6-0.4-1c-0.7-1.7-1.4-3.4-2-5.1c-0.5-1.2-0.9-2.3-1.3-3.5
				c-0.6-0.2-1.1-0.5-1.5-0.8c-0.9-0.4-1.6-1-2.1-1.8c0,0-0.4-1.1-0.5-1.1c-0.3,0-1.1-0.1-1.4-0.2c0,0.2,0.1,0.8,0.3,1.6
				c0.2,0.4,1.1,1.4,1.3,2.3c0.4,0.7,0.7,1.7,0.6,1.5c0.2,0.6,0.5,1.2,0.7,1.8c1.3,3.4,2.6,6.7,3.9,10.1c0.7,1.7,1.4,3.4,2,5.1
				c0.1,0.3,0.3,0.6,0.4,1c0.6,1.4,1.1,2.7,1.7,4.1c0.4,0.8,0.7,1.7,1.1,2.5c0.7,1.7,1.5,3.4,2.2,5.2c0.6,1.4,1.2,2.8,1.8,4.1
				c0.2,0.5,0.5,1.1,0.7,1.6c0.6,1.2,1.1,2.5,1.7,3.7c0.1,0.3,0.2,0.5,0.4,0.8c0.8,1.7,1.6,3.3,2.4,5c3.3,6.8,6.7,13.5,10.4,20
				c0.9,1.7,1.9,3.3,2.8,5c1,1.6,1.9,3.3,2.9,4.9c0.5,0.8,1,1.6,1.5,2.4c0.5,0.9,1.1,1.8,1.6,2.6c0.4,0.7,0.9,1.4,1.4,2.2
				c2.4,3.7,4.8,7.3,7.3,10.8c0.4,0.5,0.8,1.1,1.2,1.6c1.6,2.3,3.3,4.4,5,6.6c0.9,1.1,1.8,2.2,2.7,3.3c1.8,2.2,3.7,4.4,5.5,6.5
				c0.5,0.5,0.9,1,1.4,1.6c0.6,0.6,1.1,1.2,1.7,1.8c0,0,0.1,0.1,0.1,0.1c1.2,1.3,2.4,2.5,3.6,3.7c0.4,0.4,0.9,0.9,1.3,1.3
				c0.4,0.4,0.8,0.8,1.2,1.1c0.4,0.4,0.9,0.8,1.3,1.2c0.6,0.5,1.2,1.1,1.8,1.6c0.6,0.5,1.1,1,1.7,1.5c1.1,0.9,2.2,1.9,3.3,2.7
				c0.4,0.3,0.8,0.7,1.2,1c1.2,0.9,2.3,1.8,3.5,2.7c0.6,0.4,1.2,0.9,1.8,1.3c0.1,0.1,0.2,0.2,0.3,0.3c0.6,0.4,1.3,0.9,1.9,1.3
				c1.3,0.9,2.7,1.8,4.1,2.6c0.7,0.4,1.4,0.8,2.1,1.2c2.6,2.7,58.1,42,87.1,44.7c0,0,42.8-3.4,84-7.3c4.2-0.4,8.4-0.8,12.5-1.2
				c1.6-3.6,3.3-7.1,4.9-10.5C359,836.6,353.1,837.1,347.2,837.7z"/>
			<path class="st5" d="M294,1010.5c1.6,3.3,7.9,15.8,5.8,17.8c-2.2,2-12.9-6.4-16-8.2c-4-2.3-8.1-4.4-12.2-6.1
				c-36.4-15.6-72.9-9.3-80.7-7.9c-1,0.2-2,0.6-2.8,1.2c-56.3,39.4-93.5,41.6-107.6,40.6c-3.5-0.2-6.3-3-6.7-6.5
				C68.5,995.5,7.4,854.6,0.6,839.1c-0.4-0.9-0.6-1.9-0.6-2.9v-65.7c0-1.6,0.5-3.1,1.5-4.4l47.4-62.5c0.9-1.2,2.2-2.1,3.6-2.5
				l14.3-4.6c4.4-1.4,9,1.5,9.5,6.1l4.9,42.1c0,0.2,0,0.4,0.1,0.5c0.6,3.2,7,33.7,23.4,43.5C104.7,788.4,247.9,917.3,294,1010.5z"/>
			<path class="st15" d="M157.7,984c-0.8,0.6-38.9,42.3-70,43c-0.3-0.7-29.7-97.7-42-123c0,0,45-35.7,49.3-50.3
				C95.3,853,158.3,977.5,157.7,984z"/>
			<path class="st15" d="M640.6,947.7c-0.1,0.8,4.8,48.2-12.2,65.8c-0.6-0.2-77.5-45-100.2-54.2l-3.9-59
				C524,899.7,636.9,943.3,640.6,947.7z"/>
			<line class="st10" x1="304" y1="1035" x2="312" y2="1080"/>
		</g>
	</g>
</g>
</svg>
