<?xml version="1.0" encoding="utf-8"?>
<!-- Generator: Adobe Illustrator 22.0.1, SVG Export Plug-In . SVG Version: 6.00 Build 0)  -->
<svg version="1.1" id="Layer_1" xmlns="http://www.w3.org/2000/svg" xmlns:xlink="http://www.w3.org/1999/xlink" x="0px" y="0px"
	 viewBox="0 0 492.3 492.3" style="enable-background:new 0 0 492.3 492.3;" xml:space="preserve">
<style type="text/css">
	.st0{fill: currentColor;}
</style>
<rect x="171.8" y="39.4" width="148.8" height="23.3"/>
<path d="M435.9,472.6H210.1V321.3h-94v151.3H56.4v-220c18.9-0.9,35.5-10.8,45.5-25.5c10.4,15.5,28.1,25.7,48.1,25.7
	s37.7-10.2,48.1-25.7c10.4,15.5,28.1,25.7,48.1,25.7c20,0,37.7-10.2,48.1-25.7c10.4,15.5,28.1,25.7,48.1,25.7
	c20,0,37.7-10.2,48.1-25.7c9.9,14.8,26.5,24.7,45.5,25.5V472.6z"/>
<path d="M468,215.3c-5.2,9.9-14.3,16.2-25,17.5c-1.5,0.2-2.9,0.3-4.4,0.3c-21.1,0-38.3-17.2-38.3-38.3h-19.7
	c0,21.1-17.2,38.3-38.3,38.3c-21.1,0-38.3-17.2-38.3-38.3h-19.7c0,21.1-17.2,38.3-38.3,38.3c-21.1,0-38.3-17.2-38.3-38.3h-19.7
	c0,21.1-17.2,38.3-38.3,38.3c-21.1,0-38.3-17.2-38.3-38.3H92c0,21.1-17.2,38.3-38.3,38.3c-1.5,0-3-0.1-4.5-0.3
	c-10.6-1.2-19.7-7.6-25-17.5c-5.8-10.9-5.8-23.8-0.4-34.3L91.5,62.6h60.5h188.2h60.5l67.4,118.1C473.9,191.5,473.8,204.5,468,215.3z
	"/>
<g>
	<path class="st0" d="M399,306.5v86.5c0,3.2-2.6,5.8-5.8,5.8H270.6c-3.2,0-5.8-2.6-5.8-5.8v-86.5c0-3.2,2.6-5.8,5.8-5.8h122.5
		C396.4,300.7,399,303.3,399,306.5z"/>
</g>
</svg>
