<?xml version="1.0" encoding="utf-8"?>
<!-- Generator: Adobe Illustrator 22.0.1, SVG Export Plug-In . SVG Version: 6.00 Build 0)  -->
<svg version="1.1" id="Layer_1" xmlns="http://www.w3.org/2000/svg" xmlns:xlink="http://www.w3.org/1999/xlink" x="0px" y="0px"
	 viewBox="0 0 24 24" style="enable-background:new 0 0 24 24;" xml:space="preserve">
<style type="text/css">
	.st0{fill:none;}
	.st1{fill:none;stroke:currentColor;stroke-miterlimit:10;}
</style>
<g>
	<path class="st0" d="M0,0h24v24H0V0z"/>
	<path class="st1" d="M3.7,12h16.6c0.4,0,0.7,0.4,0.7,0.8v7.3c0,1-0.8,1.9-1.7,1.9H4c-0.5,0-1-0.5-1-1.1c0,0,0,0,0,0v-8.1
		C3,12.4,3.3,12,3.7,12z"/>
	<path class="st1" d="M3,3.9C3,2.8,3.8,2,4.7,2h14.6C20.2,2,21,2.8,21,3.9v7.3c0,0.4-0.3,0.8-0.7,0.8H3.7C3.3,12,3,11.6,3,11.2V3.9z
		"/>
	<path d="M9,5.7v0.6C9,6.7,9.3,7,9.7,7h4.6C14.7,7,15,6.7,15,6.3V5.7C15,5.3,14.7,5,14.3,5H9.7C9.3,5,9,5.3,9,5.7z"/>
	<path d="M9,16.7v0.6C9,17.7,9.3,18,9.7,18h4.6c0.4,0,0.7-0.3,0.7-0.7v-0.6c0-0.4-0.3-0.7-0.7-0.7H9.7C9.3,16,9,16.3,9,16.7z"/>
</g>
</svg>
